<?xml version="1.0" encoding="UTF-8" standalone="no"?>
<!-- Created with Inkscape (http://www.inkscape.org/) -->

<svg
   version="1.1"
   id="svg1"
   width="1024"
   height="1024"
   viewBox="0 0 1024 1024"
   sodipodi:docname="mojihako-favicon.svg"
   inkscape:version="1.4.4 (dcaf3e7, 2026-05-05)"
   xmlns:inkscape="http://www.inkscape.org/namespaces/inkscape"
   xmlns:sodipodi="http://sodipodi.sourceforge.net/DTD/sodipodi-0.dtd"
   xmlns="http://www.w3.org/2000/svg"
   xmlns:svg="http://www.w3.org/2000/svg">
  <defs
     id="defs1" />
  <sodipodi:namedview
     id="namedview1"
     pagecolor="#ffffff"
     bordercolor="#000000"
     borderopacity="0.25"
     inkscape:showpageshadow="2"
     inkscape:pageopacity="0.0"
     inkscape:pagecheckerboard="0"
     inkscape:deskcolor="#d1d1d1"
     inkscape:zoom="0.58227543"
     inkscape:cx="326.30606"
     inkscape:cy="507.49179"
     inkscape:window-width="1920"
     inkscape:window-height="1009"
     inkscape:window-x="1912"
     inkscape:window-y="-8"
     inkscape:window-maximized="1"
     inkscape:current-layer="g1" />
  <g
     inkscape:groupmode="layer"
     inkscape:label="Image"
     id="g1">
    <g
       id="g2"
       style="display:inline"
       transform="matrix(1.0867272,0,0,1.0594774,-229.87862,-181.73671)">
      <path
         style="fill:#e9f7f6"
         d="m 639.2362,1065.9843 c -11.67993,-5.3058 -39.53624,-17.883 -61.9029,-27.9495 -22.36667,-10.0664 -55.66666,-25.0673 -74,-33.3352 -18.33333,-8.26801 -43.83333,-19.67427 -56.66666,-25.34728 -12.83333,-5.67301 -28.43333,-12.59437 -34.66666,-15.38078 -6.23334,-2.78642 -19.13334,-8.46611 -28.66667,-12.62154 -21.23565,-9.25629 -25.56096,-11.17348 -70.55878,-31.27501 -19.74066,-8.81859 -37.36981,-17.39309 -39.17589,-19.05443 -1.80607,-1.66134 -4.39144,-5.42061 -5.74526,-8.35395 -2.35995,-5.11331 -2.46271,-14.06029 -2.49078,-216.88146 l -0.0293,-211.54813 4.24269,-3.56998 c 3.43785,-2.89277 5.01868,-3.39039 8.33333,-2.6232 2.24985,0.52074 5.14064,1.00247 6.42398,1.07051 1.28333,0.068 2.33333,0.51413 2.33333,0.9913 0,1.06814 19.51963,9.6721 21.94291,9.6721 0.96219,0 3.31865,2.4201 5.23659,5.378 l 3.48716,5.378 v 196.83402 196.83401 l 3,2.74 c 1.65,1.507 9.6,5.58101 17.66667,9.05334 8.06667,3.47234 16.99827,7.4289 19.84801,8.79237 2.84973,1.36346 5.79244,2.10134 6.53934,1.63973 0.7469,-0.46161 1.00542,-0.26881 0.57449,0.42846 -0.43093,0.69726 5.62636,4.06114 13.46065,7.47528 7.8343,3.41414 29.18046,12.81843 47.43593,20.89843 18.25547,8.08 33.85547,14.31263 34.66667,13.85029 0.8112,-0.46233 1.02762,-0.34712 0.48094,0.25602 -0.54668,0.60314 3.35332,3.03667 8.66666,5.40785 5.31335,2.37118 32.01891,14.30419 59.34568,26.5178 27.32678,12.21362 50.36948,21.78358 51.20601,21.26657 0.83985,-0.51905 1.15891,-0.35419 0.71248,0.36815 -1.00432,1.62503 53.45568,26.09733 55.4009,24.89513 0.77417,-0.4785 1.05687,-0.3025 0.62822,0.3911 -0.42865,0.6935 5.32865,3.8999 12.79399,7.1252 7.46534,3.2252 15.22334,7.5043 17.24001,9.509 3.50712,3.4864 3.66587,4.2151 3.64846,16.7475 -0.0227,16.3721 -0.57846,18.4046 -5.88871,21.5377 l -4.28727,2.5295 z m 50.19939,6.5638 -4.1023,-3.4519 V 863.17043 657.24464 l 3.26779,-6.44866 c 1.79728,-3.54676 5.24728,-8.12341 7.66666,-10.17034 2.41939,-2.04693 4.25608,-4.20349 4.08155,-4.79236 -0.17454,-0.58888 0.44797,-0.77701 1.38335,-0.41807 0.93537,0.35894 21.77818,-8.71419 46.31733,-20.16252 24.53916,-11.44832 47.43981,-22.06431 50.89035,-23.59107 3.45053,-1.52677 5.90783,-3.36794 5.46065,-4.09148 -0.45319,-0.73328 -0.13449,-0.89616 0.72006,-0.36802 1.69389,1.04688 60.33528,-25.9244 59.45655,-27.34621 -0.30191,-0.48851 0.20069,-0.80594 1.1169,-0.7054 2.95395,0.32414 76.83608,-34.29198 76.01744,-35.61658 -0.43487,-0.70362 -0.13285,-0.87277 0.67114,-0.37587 0.804,0.4969 23.5467,-9.36425 50.53934,-21.91365 26.9926,-12.54941 57.5971,-26.76976 68.0099,-31.60079 10.4129,-4.83103 18.7069,-9.14861 18.4313,-9.59462 -0.2757,-0.44601 0.5047,-0.90303 1.7342,-1.01559 1.2295,-0.11257 5.0033,-0.60991 8.3862,-1.1052 11.5279,-1.68783 10.5185,-22.84723 10.4963,220.03509 -0.015,167.67562 -0.3804,215.43343 -1.6667,218.03665 -1.9884,4.02427 -28.5209,17.55083 -69.0556,35.20531 -14.9919,6.52959 -30.25806,13.22574 -33.92473,14.88032 -7.37951,3.33002 -24.67355,11.01982 -79.33332,35.27559 -20.16667,8.94914 -42.17614,18.72673 -48.90995,21.72803 -6.7338,3.0012 -11.8911,6.0266 -11.46065,6.7231 0.43044,0.6965 0.15546,0.8787 -0.61107,0.405 -1.85358,-1.1456 -55.27714,22.3834 -54.00669,23.7858 0.5436,0.6001 0.2952,0.6946 -0.55201,0.21 -0.8472,-0.4846 -13.4472,4.4381 -28,10.9394 -77.18829,34.483 -75.32983,33.8698 -83.02399,27.3956 z M 489.99997,870.02681 c -33.64358,-7.40637 -64.1561,-31.76792 -80.56245,-64.32201 -7.39259,-14.66865 -10.41401,-26.79516 -8.08012,-32.42967 2.27065,-5.48183 6.84597,-8.30548 13.45786,-8.30548 7.89915,0 11.46014,3.41531 16.43668,15.76424 13.26425,32.91437 39.02154,54.36979 69.95907,58.27482 20.13107,2.54101 34.66295,-3.04215 43.62458,-16.7606 8.74158,-13.3816 12.93006,-15.3656 22.67568,-10.74101 6.23999,2.96107 8.4887,6.63294 8.4887,13.86107 0,17.64348 -20.51164,38.39664 -44.17462,44.69477 -8.87456,2.36205 -31.01851,2.34292 -41.82538,-0.0361 z m 121.86384,-93.05343 c -3.73486,-2.49504 -5.13777,-4.90027 -7.9883,-13.69561 -5.79065,-17.86711 -14.17108,-28.04265 -25.68391,-31.18552 -10.18378,-2.78004 -18.45891,1.605 -20.98382,11.11944 -3.34597,12.60842 -7.28846,16.78826 -15.83492,16.78826 -4.6373,0 -11.07575,-5.12087 -13.3541,-10.62129 -3.50953,-8.47276 3.41527,-27.76017 12.98281,-36.16059 8.78872,-7.71659 18.25096,-11.21585 30.33173,-11.21705 12.77844,-0.001 20.5605,2.60291 32,10.70844 10.47614,7.42293 12.7877,10.04135 19.93197,22.57793 6.55026,11.4942 10.90718,27.18996 9.42314,33.94675 -1.11802,5.09029 -7.75709,10.76581 -12.59357,10.76581 -2.03529,0 -5.73925,-1.36195 -8.23103,-3.02657 z M 434.14536,723.76472 c 0.37326,-0.60395 0.17261,-1.0981 -0.44589,-1.0981 -1.97418,0 -5.34328,-7.0681 -7.59696,-15.9378 -3.79258,-14.9263 -11.61505,-26.95867 -15.92592,-24.49693 -0.83047,0.47425 -1.06927,0.3754 -0.53067,-0.21966 1.77636,-1.96257 -3.54527,-4.59338 -9.37882,-4.63653 -10.21651,-0.0756 -14.36984,3.64377 -16.89369,15.12844 -2.28996,10.42031 -13.98672,14.73435 -21.89879,8.07678 -14.11441,-11.87649 -0.86307,-43.25543 21.38782,-50.64599 9.09412,-3.02058 25.97753,-2.08969 34.71156,1.91387 19.07843,8.7453 34.9613,31.29493 37.74703,53.59118 1.06518,8.52541 -1.34316,16.07428 -5.90756,18.51708 -3.15045,1.68606 -16.32645,1.52008 -15.26811,-0.19234 z M 676.66663,602.58558 c -5.213,-1.02424 -12.70519,-4.07149 -27.1809,-11.05507 -3.9495,-1.90538 -7.7922,-3.08652 -8.53935,-2.62475 -0.77709,0.48027 -0.9513,0.18079 -0.40707,-0.69978 0.88334,-1.42928 -0.96307,-2.06423 -5.525,-1.89993 -0.90877,0.0327 -1.38639,-0.37077 -1.06138,-0.89666 0.32502,-0.52589 -3.43144,-2.79626 -8.34768,-5.04528 -14.97241,-6.84939 -40.34693,-18.48834 -51.36932,-23.56243 -5.73689,-2.64094 -10.6144,-4.80171 -10.83891,-4.80171 -0.22451,0 -6.63069,-2.93007 -14.23596,-6.51126 -7.60527,-3.58119 -18.62776,-8.61718 -24.49442,-11.19109 -5.86667,-2.5739 -15.16667,-6.7651 -20.66667,-9.31378 -51.35238,-23.79645 -81.56844,-36.99594 -82.86133,-36.19689 -0.96481,0.59628 -1.19124,0.37678 -0.59932,-0.58097 0.90084,-1.45759 0.38686,-1.75858 -3.53934,-2.07268 -0.91667,-0.0733 -2.26667,-0.83617 -3,-1.6952 -0.73334,-0.85902 -9.43334,-5.1405 -19.33334,-9.5144 -9.9,-4.37389 -23.7,-10.64704 -30.66666,-13.94034 -6.96667,-3.29329 -26.16667,-12.08065 -42.66667,-19.52746 -32.16559,-14.51703 -37.33333,-18.06485 -37.33333,-25.63052 0,-7.82562 2.12796,-8.98267 80.9733,-44.02854 21.42551,-9.5234 35.95989,-16.69894 35.46066,-17.50672 -0.50957,-0.8245 -0.18329,-0.95926 0.8205,-0.33889 0.91656,0.56647 2.95927,0.38574 4.53934,-0.40162 1.58007,-0.78735 25.07286,-11.27431 52.20619,-23.30433 87.53024,-38.80804 90.10451,-40.01153 88.32938,-41.29483 -1.1295,-0.81654 -0.87726,-0.94704 0.78654,-0.40694 2.1009,0.682 30.88692,-11.31567 67.55074,-28.15433 4.03333,-1.85239 10.63333,-4.73516 14.66667,-6.40616 4.03333,-1.67099 15.73333,-6.73508 25.99999,-11.25354 20.2007,-8.89053 28.07139,-10.64766 36.14978,-8.07042 2.85096,0.90953 21.22291,8.82531 40.82656,17.59062 19.66589,8.79313 36.34363,15.50392 37.20601,14.97094 0.90131,-0.55704 1.20827,-0.39203 0.72508,0.38979 -1.09984,1.77958 21.10689,11.17785 24.12424,10.20979 1.74807,-0.56083 1.86989,-0.42964 0.50649,0.54545 -1.36645,0.97727 -0.77265,1.64033 2.4865,2.77647 2.35491,0.82093 4.90544,1.10707 5.66784,0.63588 0.7624,-0.47119 1.01171,-0.25079 0.55401,0.48977 -1.09816,1.77687 21.07354,11.64315 23.20476,10.32599 0.97071,-0.59993 1.28429,-0.45061 0.7771,0.37004 -1.13248,1.83239 117.01625,54.32707 119.21474,52.96833 0.96171,-0.59437 1.29392,-0.45805 0.80635,0.33086 -0.47096,0.76202 7.07296,4.85812 17.46065,9.48058 10.05943,4.47638 28.98949,12.97006 42.0668,18.87486 13.0773,5.90479 24.4773,10.33504 25.3333,9.845 0.8561,-0.49004 1.1166,-0.40497 0.5791,0.18906 -0.5376,0.59402 9.3624,5.7924 21.9999,11.55195 12.6376,5.75955 24.0274,11.7362 25.3108,13.28144 2.64,3.17876 3.0449,9.35986 0.8783,13.40815 -1.9636,3.66896 -53.9545,28.56967 -148.54499,71.14462 -11,4.95107 -32.9,14.84497 -48.66666,21.98643 -15.76667,7.14147 -31.80857,14.32772 -35.64867,15.96947 -3.97323,1.69865 -6.61369,3.58092 -6.12732,4.36788 0.47485,0.76831 0.21302,0.98633 -0.58914,0.49056 -1.81963,-1.12459 -123.13004,53.80642 -122.1891,55.32889 0.38101,0.61648 -0.11669,0.81027 -1.10598,0.43064 -0.9893,-0.37963 -6.87046,1.63781 -13.06925,4.4832 -12.18327,5.5924 -20.2258,7.13598 -28.60386,5.48986 z"
         id="path4" />
      <path
         style="fill:#d1f0ec"
         d="m 639.2362,1065.9843 c -11.67993,-5.3058 -39.53624,-17.883 -61.9029,-27.9495 -22.36667,-10.0664 -55.66666,-25.0673 -74,-33.3352 -18.33333,-8.26801 -43.83333,-19.67427 -56.66666,-25.34728 -12.83333,-5.67301 -28.43333,-12.59437 -34.66666,-15.38078 -6.23334,-2.78642 -19.13334,-8.46611 -28.66667,-12.62154 -21.23565,-9.25629 -25.56096,-11.17348 -70.55878,-31.27501 -19.74066,-8.81859 -37.36981,-17.39309 -39.17589,-19.05443 -1.80607,-1.66134 -4.39144,-5.42061 -5.74526,-8.35395 -2.35995,-5.11331 -2.46271,-14.06029 -2.49078,-216.88146 l -0.0293,-211.54813 4.24269,-3.56998 c 5.20494,-4.37968 7.4248,-4.06637 24.23226,3.42003 6.70544,2.98675 13.18781,5.51263 14.40525,5.61306 1.21745,0.10043 3.76745,2.57909 5.66667,5.50811 l 3.45312,5.32551 v 196.83402 196.83401 l 3,2.74 c 1.65,1.507 9.6,5.58101 17.66667,9.05334 8.06667,3.47234 17.06667,7.48259 20,8.91168 2.93333,1.42908 23.63333,10.70945 46,20.62304 22.36666,9.9136 48.46666,21.51294 57.99999,25.77632 9.53334,4.26338 39.69161,17.74389 67.01838,29.95668 27.32678,12.2128 50.36948,21.78209 51.20601,21.26508 0.88092,-0.54443 1.15736,-0.35169 0.65693,0.45803 -0.48712,0.78818 1.31331,2.29123 4.12732,3.4456 27.30634,11.20175 80.17947,36.11835 82.65802,38.95285 2.67225,3.0561 2.99801,4.843 2.98179,16.3566 -0.0228,16.1846 -0.58746,18.2329 -5.88871,21.3607 l -4.28727,2.5295 z m 50.19939,6.5638 -4.1023,-3.4519 V 863.17043 657.24464 l 3.32269,-6.557 c 1.82747,-3.60635 5.27747,-8.10227 7.66666,-9.99094 3.40927,-2.69505 58.16099,-28.87647 102.34398,-48.93931 3.3,-1.49848 25.2,-11.73855 48.66666,-22.75571 23.46667,-11.01717 54.66667,-25.57246 69.33333,-32.3451 25.95056,-11.98321 92.06449,-42.69684 144.66669,-67.20574 15.6641,-7.2984 27.6926,-12.11485 30.2577,-12.11586 9.0598,-0.004 8.411,-17.06392 8.3893,220.62832 -0.015,167.67562 -0.3804,215.43343 -1.6667,218.03665 -1.9884,4.02427 -28.5209,17.55083 -69.0556,35.20531 -14.9919,6.52959 -30.25806,13.22574 -33.92473,14.88032 -14.47734,6.53292 -43.78382,19.52267 -65.33333,28.95824 -12.46666,5.4586 -37.36666,16.55706 -55.33333,24.66326 -27.78112,12.53432 -70.47094,31.49652 -154.92313,68.81472 -19.2804,8.5198 -24.19221,9.1723 -30.30789,4.0263 z M 489.99997,870.02681 c -33.64358,-7.40637 -64.1561,-31.76792 -80.56245,-64.32201 -7.39259,-14.66865 -10.41401,-26.79516 -8.08012,-32.42967 2.27065,-5.48183 6.84597,-8.30548 13.45786,-8.30548 7.89915,0 11.46014,3.41531 16.43668,15.76424 13.26425,32.91437 39.02154,54.36979 69.95907,58.27482 20.13107,2.54101 34.66295,-3.04215 43.62458,-16.7606 8.74158,-13.3816 12.93006,-15.3656 22.67568,-10.74101 6.23999,2.96107 8.4887,6.63294 8.4887,13.86107 0,17.64348 -20.51164,38.39664 -44.17462,44.69477 -8.87456,2.36205 -31.01851,2.34292 -41.82538,-0.0361 z m 121.86384,-93.05343 c -3.73486,-2.49504 -5.13777,-4.90027 -7.9883,-13.69561 -5.79065,-17.86711 -14.17108,-28.04265 -25.68391,-31.18552 -10.18378,-2.78004 -18.45891,1.605 -20.98382,11.11944 -3.34597,12.60842 -7.28846,16.78826 -15.83492,16.78826 -4.6373,0 -11.07575,-5.12087 -13.3541,-10.62129 -3.50953,-8.47276 3.41527,-27.76017 12.98281,-36.16059 8.78872,-7.71659 18.25096,-11.21585 30.33173,-11.21705 12.77844,-0.001 20.5605,2.60291 32,10.70844 10.47614,7.42293 12.7877,10.04135 19.93197,22.57793 6.55026,11.4942 10.90718,27.18996 9.42314,33.94675 -1.11802,5.09029 -7.75709,10.76581 -12.59357,10.76581 -2.03529,0 -5.73925,-1.36195 -8.23103,-3.02657 z M 432.8471,721.81678 c -1.93408,-1.93408 -4.1873,-5.98408 -5.00716,-9 -5.58492,-20.54463 -8.40456,-25.90911 -16.57161,-31.52819 -4.09058,-2.8144 -7.33317,-3.9553 -11.24147,-3.9553 -10.00151,0 -14.15004,3.7792 -16.65345,15.17085 -2.28996,10.42031 -13.98672,14.73435 -21.89879,8.07678 -14.11441,-11.87649 -0.86307,-43.25543 21.38782,-50.64599 9.09412,-3.02058 25.97753,-2.08969 34.71156,1.91387 9.82718,4.50465 18.90361,12.49814 25.41117,22.37926 13.33432,20.24693 16.64173,42.54582 7.28276,49.1011 -4.74707,3.32497 -13.32846,2.57999 -17.42083,-1.51238 z M 676.66663,602.59476 c -5.2615,-1.02473 -11.09906,-3.47503 -34.66667,-14.55124 -13.88406,-6.52518 -19.43917,-9.09437 -41.33333,-19.11625 -8.8,-4.02814 -20.69382,-9.48465 -26.4307,-12.12559 -5.73689,-2.64094 -10.6144,-4.80171 -10.83891,-4.80171 -0.22451,0 -6.63069,-2.93007 -14.23596,-6.51126 -7.60527,-3.58119 -18.62776,-8.61718 -24.49442,-11.19109 -5.86667,-2.5739 -15.16667,-6.76589 -20.66667,-9.31553 -5.5,-2.54964 -26.8,-12.2695 -47.33333,-21.59969 -20.53333,-9.33019 -39.13333,-17.85365 -41.33333,-18.94103 -2.2,-1.08738 -11.8,-5.46301 -21.33333,-9.72362 -9.53334,-4.26062 -23.03334,-10.44109 -30,-13.73439 -6.96667,-3.29329 -26.16667,-12.08065 -42.66667,-19.52746 -32.16559,-14.51703 -37.33333,-18.06485 -37.33333,-25.63052 0,-7.81565 1.54221,-8.66241 76.52934,-42.0191 18.99114,-8.44787 37.59114,-16.77398 41.33333,-18.50247 3.7422,-1.7285 29.00399,-12.99515 56.13732,-25.03701 83.84294,-37.20978 89.89679,-40.02179 89.0636,-41.36992 -0.446,-0.72165 -0.12862,-0.88845 0.70739,-0.37177 1.25119,0.77328 33.29683,-12.70493 66.89567,-28.13593 4.03333,-1.85239 10.63333,-4.73516 14.66667,-6.40616 4.03333,-1.67099 15.73333,-6.74202 25.99999,-11.26896 22.80762,-10.05669 28.53119,-10.9502 40.66667,-6.34853 4.76666,1.80748 40.46666,17.51689 79.33333,34.9098 38.86666,17.39291 97.06666,43.3182 129.33332,57.61177 32.26667,14.29356 70.36667,31.27279 84.66666,37.73162 14.30003,6.45882 40.26833,18.18652 57.70733,26.06155 18.675,8.4332 32.5126,15.46803 33.6666,17.11565 2.3146,3.30453 2.5449,9.28535 0.5044,13.09811 -1.9636,3.66896 -53.9545,28.56967 -148.54499,71.14462 -11,4.95107 -32.9,14.84497 -48.66666,21.98643 -15.76667,7.14147 -31.80857,14.32772 -35.64867,15.96947 -3.97323,1.69865 -6.61369,3.58092 -6.12732,4.36788 0.47485,0.76831 0.21302,0.98633 -0.58914,0.49056 -1.81963,-1.12459 -123.13004,53.80642 -122.1891,55.32889 0.38101,0.61648 -0.11669,0.81027 -1.10598,0.43064 -0.9893,-0.37963 -6.87046,1.63781 -13.06925,4.4832 -12.17302,5.5877 -20.21266,7.1333 -28.60386,5.49904 z"
         id="path3" />
      <path
         style="fill:#13b7a5"
         d="m 639.2362,1065.9843 c -11.67993,-5.3058 -39.53624,-17.883 -61.9029,-27.9495 -22.36667,-10.0664 -55.66666,-25.0673 -74,-33.3352 -18.33333,-8.26801 -43.83333,-19.67427 -56.66666,-25.34728 -12.83333,-5.67301 -28.43333,-12.59437 -34.66666,-15.38078 -6.23334,-2.78642 -19.13334,-8.46611 -28.66667,-12.62154 -21.23565,-9.25629 -25.56096,-11.17348 -70.55878,-31.27501 -19.74066,-8.81859 -37.36981,-17.39309 -39.17589,-19.05443 -1.80607,-1.66134 -4.39144,-5.42061 -5.74526,-8.35395 -2.35995,-5.11331 -2.46271,-14.06029 -2.49078,-216.88146 l -0.0293,-211.54813 4.24269,-3.56998 c 5.27611,-4.43956 6.89656,-4.17075 26.74887,4.43725 11.69659,5.07166 15.67043,7.47666 18.00843,10.89886 l 3,4.39118 v 196.90372 196.90373 l 3,2.74 c 1.65,1.507 9.6,5.58101 17.66667,9.05334 8.06667,3.47234 17.06667,7.48259 20,8.91168 2.93333,1.42908 23.63333,10.70571 46,20.61472 22.36666,9.90901 47.86666,21.24399 56.66666,25.18884 8.8,3.94485 54.4,24.34149 101.33333,45.32587 46.93333,20.98437 89.42462,40.01857 94.42508,42.29827 13.06959,5.9582 14.24554,7.9021 14.22337,23.5119 -0.0228,16.073 -0.5929,18.1307 -5.88871,21.2553 l -4.28727,2.5295 z m 50.19939,6.5638 -4.1023,-3.4519 V 863.17043 657.24464 l 3.32269,-6.557 c 1.82747,-3.60635 5.27747,-8.10227 7.66666,-9.99094 3.40927,-2.69505 58.16099,-28.87647 102.34398,-48.93931 3.3,-1.49848 25.2,-11.73855 48.66666,-22.75571 23.46667,-11.01717 54.66667,-25.57246 69.33333,-32.3451 25.95056,-11.98321 92.06449,-42.69684 144.66669,-67.20574 15.6641,-7.2984 27.6926,-12.11485 30.2577,-12.11586 9.0598,-0.004 8.411,-17.06392 8.3893,220.62832 -0.015,167.67562 -0.3804,215.43343 -1.6667,218.03665 -1.9884,4.02427 -28.5209,17.55083 -69.0556,35.20531 -14.9919,6.52959 -30.25806,13.22574 -33.92473,14.88032 -14.47734,6.53292 -43.78382,19.52267 -65.33333,28.95824 -12.46666,5.4586 -37.36666,16.55706 -55.33333,24.66326 -27.78112,12.53432 -70.47094,31.49652 -154.92313,68.81472 -19.2804,8.5198 -24.19221,9.1723 -30.30789,4.0263 z M 489.99997,870.02681 c -33.64358,-7.40637 -64.1561,-31.76792 -80.56245,-64.32201 -7.39259,-14.66865 -10.41401,-26.79516 -8.08012,-32.42967 2.27065,-5.48183 6.84597,-8.30548 13.45786,-8.30548 7.89915,0 11.46014,3.41531 16.43668,15.76424 13.26425,32.91437 39.02154,54.36979 69.95907,58.27482 20.13107,2.54101 34.66295,-3.04215 43.62458,-16.7606 8.74158,-13.3816 12.93006,-15.3656 22.67568,-10.74101 6.23999,2.96107 8.4887,6.63294 8.4887,13.86107 0,17.64348 -20.51164,38.39664 -44.17462,44.69477 -8.87456,2.36205 -31.01851,2.34292 -41.82538,-0.0361 z m 121.86384,-93.05343 c -3.73486,-2.49504 -5.13777,-4.90027 -7.9883,-13.69561 -5.79065,-17.86711 -14.17108,-28.04265 -25.68391,-31.18552 -10.18378,-2.78004 -18.45891,1.605 -20.98382,11.11944 -3.34597,12.60842 -7.28846,16.78826 -15.83492,16.78826 -4.6373,0 -11.07575,-5.12087 -13.3541,-10.62129 -3.50953,-8.47276 3.41527,-27.76017 12.98281,-36.16059 8.78872,-7.71659 18.25096,-11.21585 30.33173,-11.21705 12.77844,-0.001 20.5605,2.60291 32,10.70844 10.47614,7.42293 12.7877,10.04135 19.93197,22.57793 6.55026,11.4942 10.90718,27.18996 9.42314,33.94675 -1.11802,5.09029 -7.75709,10.76581 -12.59357,10.76581 -2.03529,0 -5.73925,-1.36195 -8.23103,-3.02657 z M 432.8471,721.81678 c -1.93408,-1.93408 -4.1873,-5.98408 -5.00716,-9 -5.58492,-20.54463 -8.40456,-25.90911 -16.57161,-31.52819 -4.09058,-2.8144 -7.33317,-3.9553 -11.24147,-3.9553 -10.00151,0 -14.15004,3.7792 -16.65345,15.17085 -2.28996,10.42031 -13.98672,14.73435 -21.89879,8.07678 -14.11441,-11.87649 -0.86307,-43.25543 21.38782,-50.64599 9.09412,-3.02058 25.97753,-2.08969 34.71156,1.91387 9.82718,4.50465 18.90361,12.49814 25.41117,22.37926 13.33432,20.24693 16.64173,42.54582 7.28276,49.1011 -4.74707,3.32497 -13.32846,2.57999 -17.42083,-1.51238 z M 676.66663,602.59476 c -5.2615,-1.02473 -11.09906,-3.47503 -34.66667,-14.55124 -13.88406,-6.52518 -19.43917,-9.09437 -41.33333,-19.11625 -8.8,-4.02814 -20.69382,-9.48465 -26.4307,-12.12559 -5.73689,-2.64094 -10.6144,-4.80171 -10.83891,-4.80171 -0.22451,0 -6.63069,-2.93007 -14.23596,-6.51126 -7.60527,-3.58119 -18.62776,-8.61718 -24.49442,-11.19109 -5.86667,-2.5739 -15.16667,-6.76589 -20.66667,-9.31553 -5.5,-2.54964 -26.8,-12.2695 -47.33333,-21.59969 -20.53333,-9.33019 -39.13333,-17.85365 -41.33333,-18.94103 -2.2,-1.08738 -11.8,-5.46301 -21.33333,-9.72362 -9.53334,-4.26062 -23.03334,-10.44109 -30,-13.73439 -6.96667,-3.29329 -26.16667,-12.08065 -42.66667,-19.52746 -32.16559,-14.51703 -37.33333,-18.06485 -37.33333,-25.63052 0,-7.80543 1.54409,-8.65449 76,-41.79099 18.7,-8.3224 37.9,-16.9153 42.66666,-19.09532 4.76667,-2.18002 15.86667,-7.1147 24.66667,-10.96597 8.8,-3.85126 42.1,-18.69822 73.99999,-32.99325 31.9,-14.29502 68.8,-30.76561 82,-36.60131 13.2,-5.83569 27.3,-12.12842 31.33333,-13.98385 4.03333,-1.85542 10.63333,-4.74067 14.66667,-6.41167 4.03333,-1.67099 15.73333,-6.74202 25.99999,-11.26896 22.80762,-10.05669 28.53119,-10.9502 40.66667,-6.34853 4.76666,1.80748 40.46666,17.51689 79.33333,34.9098 38.86666,17.39291 97.06666,43.3182 129.33332,57.61177 32.26667,14.29356 70.36667,31.27279 84.66666,37.73162 14.30003,6.45882 40.26833,18.18652 57.70733,26.06155 18.675,8.4332 32.5126,15.46803 33.6666,17.11565 2.475,3.53349 2.5222,10.14051 0.097,13.60259 -2.5813,3.68527 -48.0316,25.39575 -142.13789,67.89567 -63.0386,28.46926 -82.65339,37.3533 -97.33333,44.08477 -94.76667,43.45513 -148.11619,66.96261 -153.33332,67.56348 -3.3,0.38008 -8.4,0.22362 -11.33333,-0.34767 z"
         id="path2" />
    </g>
  </g>
</svg>
