<?xml version="1.0" encoding="UTF-8" standalone="no"?>
<!-- Created with Inkscape (http://www.inkscape.org/) -->

<svg
   version="1.1"
   id="svg1"
   width="372"
   height="544"
   viewBox="0 0 372 544"
   sodipodi:docname="mojihako-brand-logo-origin.svg"
   inkscape:version="1.4.4 (dcaf3e7, 2026-05-05)"
   xmlns:inkscape="http://www.inkscape.org/namespaces/inkscape"
   xmlns:sodipodi="http://sodipodi.sourceforge.net/DTD/sodipodi-0.dtd"
   xmlns="http://www.w3.org/2000/svg"
   xmlns:svg="http://www.w3.org/2000/svg">
  <defs
     id="defs1" />
  <sodipodi:namedview
     id="namedview1"
     pagecolor="#ffffff"
     bordercolor="#000000"
     borderopacity="0.25"
     inkscape:showpageshadow="2"
     inkscape:pageopacity="0.0"
     inkscape:pagecheckerboard="0"
     inkscape:deskcolor="#d1d1d1"
     inkscape:zoom="1.4613971"
     inkscape:cx="360.2717"
     inkscape:cy="271.31572"
     inkscape:window-width="1920"
     inkscape:window-height="1009"
     inkscape:window-x="1912"
     inkscape:window-y="-8"
     inkscape:window-maximized="1"
     inkscape:current-layer="g1" />
  <g
     inkscape:groupmode="layer"
     inkscape:label="Image"
     id="g1">
    <g
       id="g2"
       transform="translate(-1.3685536,-4.10566)">
      <path
         style="fill:#f5d59f"
         d="m 169.00459,521.35402 c -3.02247,-1.39158 -5.72247,-2.85571 -6,-3.25364 -0.27752,-0.39793 -3.54209,-2.00081 -7.25459,-3.56196 -3.7125,-1.56115 -6.75,-3.11624 -6.75,-3.45575 0,-0.33951 -2.8125,-1.70765 -6.25,-3.04031 -3.4375,-1.33266 -7.05503,-3.23737 -8.03896,-4.23269 -0.98392,-0.99532 -2.33392,-1.82494 -3,-1.8436 C 131.04497,501.94741 128.7,501.06268 126.5,500 c -2.2,-1.06268 -4.45425,-1.94741 -5.00945,-1.96607 -0.5552,-0.0187 -1.51767,-0.84771 -2.13882,-1.84233 -0.62115,-0.99462 -2.9593,-2.35666 -5.19588,-3.02676 -2.23658,-0.6701 -4.64911,-1.78958 -5.36118,-2.48775 -0.71207,-0.69817 -4.33217,-2.55363 -8.04467,-4.12326 C 97.0375,484.9842 94,483.3852 94,483.00048 c 0,-0.38471 -2.752199,-1.7797 -6.115997,-3.09998 -3.363798,-1.32027 -6.336943,-2.963 -6.606989,-3.6505 -0.270045,-0.6875 -1.256838,-1.25 -2.192873,-1.25 -0.936035,0 -2.57539,-0.66069 -3.643011,-1.4682 -1.067622,-0.8075 -2.643777,-1.4825 -3.502569,-1.5 -0.858791,-0.0175 -2.433791,-0.8193 -3.5,-1.7818 -2.024144,-1.82726 -4.663834,-3.19048 -10.273732,-5.30568 -1.834343,-0.69163 -3.867585,-1.74955 -4.518314,-2.35092 -1.865525,-1.72402 -6.89366,-4.26148 -9.826588,-4.95901 -1.47404,-0.35057 -3.295739,-1.19922 -4.04822,-1.88589 C 37.576441,453.74522 30.246143,450 28.520497,450 c -0.870797,0 -1.833936,-0.65323 -2.14031,-1.45163 -0.306374,-0.7984 -2.020997,-1.93478 -3.810273,-2.5253 -1.789276,-0.59051 -4.221508,-2.18728 -5.404958,-3.54836 C 15.981505,441.11362 14.560251,440 14.006613,440 c -1.096971,0 -1.490436,-181.5756 -0.399624,-184.41821 0.644108,-1.67852 5.978308,-2.24262 6.559678,-0.6937 C 20.35,255.37653 22.3,256.61755 24.5,257.6459 l 4,1.86972 0.255538,85.50869 0.255539,85.50869 4.001321,1.7335 C 35.213125,433.21992 37.460633,434 38.00686,434 38.553087,434 39,434.39937 39,434.88748 c 0,0.48812 3.0375,2.16012 6.75,3.71557 3.7125,1.55545 7.072425,3.33919 7.466501,3.96387 0.394075,0.62468 2.756575,1.91489 5.25,2.86714 C 60.959925,446.3863 63,447.5782 63,448.08271 63,448.58722 63.437699,449 63.972665,449 c 1.092891,0 12.251208,5.09641 13.027335,5.95006 0.931527,1.02457 7.484401,3.97723 10.276378,4.63044 1.527007,0.35726 3.23034,1.49779 3.785183,2.53453 0.554844,1.03673 1.525898,1.88497 2.157898,1.88497 1.606898,0 10.004551,4.12439 11.601971,5.69815 0.72678,0.71602 1.95043,1.30185 2.7192,1.30185 1.71283,0 9.83165,4.10582 10.2927,5.20518 0.18334,0.43715 0.85834,0.7967 1.5,0.79901 0.64167,0.002 3.38044,1.1273 6.08615,2.5 2.70571,1.37269 5.51821,2.49581 6.25,2.49581 0.73179,0 1.33052,0.39937 1.33052,0.88748 0,0.48812 2.925,2.13062 6.5,3.65002 3.575,1.5194 6.5,3.04597 6.5,3.39238 0,0.34641 2.25189,1.5037 5.0042,2.57175 2.75231,1.06805 6.1973,2.96711 7.65554,4.22014 1.45823,1.25303 3.24249,2.27823 3.96501,2.27823 1.4485,0 9.58077,3.98457 10.37525,5.08357 0.275,0.38041 2.2067,1.40228 4.29266,2.27084 l 3.79266,1.57919 -0.29266,7.7832 -0.29266,7.7832 -3,0.19207 c -1.65,0.10564 -5.47293,-0.94648 -8.49541,-2.33805 z m 26.24541,1.9837 c -1.72571,-0.69634 -1.83247,-177.66157 -0.11065,-183.4085 0.97028,-3.23851 1.89774,-4.12762 6.25,-5.99154 2.81086,-1.20379 5.33565,-2.53164 5.61065,-2.95079 0.275,-0.41914 3.38075,-1.9721 6.90167,-3.45101 3.52092,-1.4789 7.12092,-3.48995 8,-4.469 0.87908,-0.97904 3.84833,-2.59084 6.59833,-3.58177 2.75,-0.99093 5.225,-2.11998 5.5,-2.509 C 234.54786,316.2011 245.2932,311 246.34649,311 c 0.35943,0 1.55351,-0.9 2.65351,-2 1.1,-1.1 2.69083,-2 3.53518,-2 1.40026,0 6.25916,-2.62867 7.46482,-4.03846 0.275,-0.32156 3.65,-1.8976 7.5,-3.50231 3.85,-1.60471 7.14409,-3.24677 7.3202,-3.64903 C 275.21229,294.91459 285.46226,290 286.93807,290 287.52213,290 288,289.62604 288,289.16898 c 0,-0.83336 1.28006,-1.54925 8.25,-4.61394 2.0625,-0.90688 3.75351,-1.96526 3.7578,-2.35196 0.01,-0.87036 4.90856,-3.20308 6.72675,-3.20308 1.19105,0 5.96268,-2.61247 7.26545,-3.97783 0.75236,-0.78851 9.6032,-5.02217 10.49929,-5.02217 0.42912,0 1.27983,-0.60394 1.89047,-1.34208 0.61063,-0.73815 3.58524,-2.36963 6.61024,-3.62552 3.025,-1.25588 5.725,-2.62636 6,-3.04551 0.275,-0.41914 3.40938,-1.98415 6.96529,-3.47778 3.55591,-1.49364 6.95612,-3.38696 7.55603,-4.20738 0.60791,-0.83137 2.17258,-1.33897 3.53471,-1.1467 L 359.5,253.5 359.76834,346 c 0.19691,67.8769 -0.0357,93.07652 -0.8739,94.66577 -0.62823,1.19117 -2.09899,2.48064 -3.26834,2.86548 -1.16936,0.38484 -2.3511,0.79795 -2.6261,0.91802 -0.275,0.12008 -1.84084,0.77126 -3.47965,1.44709 -1.6388,0.67582 -3.2138,1.59132 -3.5,2.03444 -0.7016,1.08631 -9.07601,5.0692 -10.65849,5.0692 -0.69436,0 -1.62234,0.62047 -2.06217,1.37883 -0.43983,0.75835 -3.27469,2.41305 -6.29969,3.6771 -3.025,1.26405 -6.32193,3.13671 -7.3265,4.16147 -1.00458,1.02476 -3.13198,2.1243 -4.72757,2.44341 -1.59559,0.31912 -3.41627,1.20099 -4.04595,1.9597 -0.62968,0.75872 -1.78359,1.37949 -2.56424,1.37949 -0.78065,0 -2.3854,0.9 -3.56611,2 -1.18072,1.1 -2.77997,2 -3.5539,2 -1.39692,0 -7.25747,2.93579 -8.21573,4.1156 -0.275,0.33858 -3.0875,1.83376 -6.25,3.32262 -3.1625,1.48886 -5.75,3.12434 -5.75,3.6344 C 281,483.58268 280.36653,484 279.59229,484 277.62259,484 268,489.09837 268,490.14197 c 0,0.47192 -0.7875,0.87234 -1.75,0.88983 -0.9625,0.0175 -2.62351,0.6925 -3.69113,1.5 -1.06762,0.80751 -2.67027,1.4682 -3.56144,1.4682 -0.89117,0 -2.49266,0.80261 -3.55887,1.78357 -1.06621,0.98096 -4.41356,2.82166 -7.43856,4.09043 -3.025,1.26878 -5.95,2.83723 -6.5,3.48545 -0.55,0.64823 -3.025,2.0114 -5.5,3.02928 -7.3188,3.00997 -9,3.90292 -9,4.78025 0,0.45706 -0.4377,0.83102 -0.97266,0.83102 -1.80531,0 -12.5206,5.38561 -13.32703,6.69829 -0.43983,0.71594 -1.33983,1.31698 -2,1.33564 -0.66017,0.0187 -3.00031,0.90339 -5.20031,1.96607 -3.88168,1.87498 -7.68756,2.37169 -10.25,1.33772 z M 104.5,439 c -1.1,-0.47269 -3.15265,-0.89106 -4.561439,-0.92971 C 98.52977,438.03163 96.411086,437.1 95.230375,436 c -1.180712,-1.1 -2.400212,-2 -2.710002,-2 -1.085337,0 -8.876787,-5.51026 -11.498439,-8.13191 -6.464885,-6.46489 -11.988179,-16.88756 -12.762366,-24.08309 -0.463925,-4.31186 -0.289497,-4.81424 2.040039,-5.87565 4.017267,-1.83039 9.577387,-0.34759 10.854013,2.8946 0.58387,1.48283 1.463162,3.47744 1.953981,4.43248 0.49082,0.95504 0.892399,2.42051 0.892399,3.25661 0,0.8361 1.125,2.49836 2.5,3.69391 1.375,1.19555 2.5,2.57471 2.5,3.06481 0,1.2028 2.615668,3.74824 3.851648,3.74824 0.546978,0 2.308014,1.31351 3.913412,2.91891 3.64506,3.64505 10.11998,5.47535 16.16384,4.56911 5.48861,-0.82299 7.92384,-2.03109 10.37468,-5.14683 1.9899,-2.52975 5.74032,-3.03539 10.13132,-1.36594 2.16197,0.82198 2.5651,1.60236 2.5651,4.96552 0,3.04545 -0.66496,4.64959 -2.80834,6.77475 -4.57565,4.53677 -8.52836,7.32361 -11.19166,7.89064 -1.375,0.29274 -3.53367,0.95111 -4.79705,1.46305 -2.80998,1.13863 -9.98309,1.09955 -12.70295,-0.0692 z m 51.34883,-30.67029 c -1.82121,-0.48343 -3.0905,-3.3147 -4.81935,-10.75007 -0.84403,-3.62996 -2.2105,-5.92473 -5.21037,-8.75 C 141.93918,385.17553 139,383.92685 139,385.93261 c 0,0.51294 -0.9,1.21826 -2,1.56739 -1.1,0.34913 -2,1.27945 -2,2.06739 0,0.78793 -0.45,1.43261 -1,1.43261 -0.55,0 -1,0.62686 -1,1.39301 0,1.68624 -2.15557,2.60699 -6.10323,2.60699 -2.1652,0 -3.23973,-0.65862 -4.07872,-2.5 -0.6265,-1.375 -1.51685,-2.5 -1.97857,-2.5 C 120.37777,390 120,388.65 120,387 c 0,-1.65 0.3375,-3.00351 0.75,-3.0078 0.87995,-0.009 3.25,-4.8362 3.25,-6.61922 0,-0.67555 1.8,-2.02244 4,-2.99308 2.2,-0.97064 4,-2.12819 4,-2.57235 0,-0.44415 3.375,-0.80755 7.5,-0.80755 4.125,0 7.5,0.39541 7.5,0.87868 0,0.48327 1.35,1.43787 3,2.12132 1.65,0.68345 3,1.63805 3,2.12132 0,0.48327 0.51933,0.87868 1.15407,0.87868 2.24509,0 8.36931,8.47434 10.0812,13.94979 3.96033,12.66697 0.54249,19.75003 -8.38644,17.37992 z M 80.5,374.23532 c -3.053629,-0.6336 -5.453054,-4.32457 -5.477764,-8.4263 C 75.010006,363.77898 74.55,361.83992 74,361.5 c -0.55,-0.33992 -1,-1.49148 -1,-2.55902 0,-1.06754 -0.3375,-1.94306 -0.75,-1.94561 -0.4125,-0.003 -2.188095,-1.35254 -3.945766,-3 C 64.938137,350.84035 61,350.00354 61,352.4433 c 0,0.79381 -0.7875,2.03131 -1.75,2.75 -0.9625,0.71868 -2.388541,2.5442 -3.16898,4.0567 -1.004732,1.94718 -2.189651,2.75 -4.05887,2.75 -4.14269,0 -6.170733,-2.13861 -6.729553,-7.09644 -0.723778,-6.42134 2.531379,-13.07653 7.226316,-14.77424 C 54.433511,339.43699 56,338.44967 56,337.93527 56,337.42087 58.925,337 62.5,337 c 3.582504,0 6.5,0.44029 6.5,0.98095 0,0.53952 1.233044,1.29042 2.740097,1.66867 1.507054,0.37824 3.329267,1.27689 4.049364,1.99698 0.720097,0.7201 1.874365,1.6567 2.565041,2.08134 C 80.465662,345.0259 85,351.58738 85,353.34439 85,354.25498 85.401855,355 85.893011,355 c 2.340799,0 3.928611,13.5498 1.88509,16.08666 -1.833601,2.27626 -4.961312,3.62938 -7.278101,3.14866 z m 99.0305,-53.78925 c -3.83323,-1.36353 -7.34309,-3.14671 -7.79969,-3.96261 C 171.2742,315.66756 170.26002,315 169.47706,315 c -2.06698,0 -10.83783,-4.28237 -11.77675,-5.75 C 157.26048,308.5625 156.26002,308 155.47706,308 153.50216,308 145,303.78078 145,302.80073 145,302.36033 144.52826,302 143.95169,302 c -0.57656,0 -2.91109,-0.9 -5.18783,-2 -2.27673,-1.1 -4.74412,-2 -5.48307,-2 -0.73896,0 -1.60258,-0.675 -1.91916,-1.5 -0.31659,-0.825 -1.36678,-1.5 -2.33376,-1.5 -0.96698,0 -2.90232,-0.9 -4.30074,-2 -1.39842,-1.1 -3.3841,-2 -4.41262,-2 -1.02851,0 -2.64063,-0.9 -3.58248,-2 -0.94185,-1.1 -2.5903,-2 -3.66323,-2 -1.07292,0 -2.22888,-0.45 -2.5688,-1 -0.33992,-0.55 -1.49148,-1 -2.55902,-1 C 106.87344,285 106,284.55 106,284 c 0,-0.55 -0.62686,-1 -1.39301,-1 -0.76616,0 -1.61288,-0.57297 -1.88161,-1.27327 -0.26873,-0.70031 -3.466879,-2.3247 -7.106992,-3.60977 C 91.978274,276.83189 89,275.441 89,275.0261 c 0,-0.41491 -2.033212,-1.53087 -4.518248,-2.47992 -2.485037,-0.94904 -5.072537,-2.25784 -5.75,-2.90843 C 78.054288,268.98716 74.35,267.14272 70.5,265.53899 c -3.85,-1.60373 -7.225,-3.22059 -7.5,-3.59303 -0.275,-0.37243 -3.2,-1.93769 -6.5,-3.47833 -3.3,-1.54065 -6.225,-3.06435 -6.5,-3.386 C 49.089457,254.01663 37.622664,249 36.098871,249 35.494492,249 35,248.58722 35,248.08271 35,247.5782 33.016911,246.40807 30.593135,245.48242 26.946061,244.08959 22,240.12712 22,238.59815 22,237.42709 28.039074,232 29.342193,232 c 0.846875,0 1.817888,-0.45 2.157807,-1 0.339919,-0.55 1.491476,-1 2.559017,-1 C 35.126558,230 36,229.55 36,229 c 0,-0.55 0.9,-1 2,-1 1.1,0 2.000593,-0.3375 2.001318,-0.75 7.25e-4,-0.4125 2.925725,-2.08459 6.5,-3.71575 C 50.075593,221.90309 53,220.21559 53,219.78425 53,219.35291 53.586645,219 54.303656,219 55.763308,219 66.221454,214.0145 67,212.94752 67.835915,211.80193 77.83408,207 79.383423,207 c 0.797451,0 1.59991,-0.39262 1.783244,-0.87249 C 81.606817,204.97542 91.526594,200 93.383423,200 c 0.797451,0 1.59991,-0.36041 1.783244,-0.80091 C 95.643208,198.0541 104.98592,193 106.62595,193 107.38168,193 108,192.62976 108,192.17726 c 0,-0.45251 2.1375,-1.88742 4.75,-3.18869 2.6125,-1.30127 5.34464,-2.95604 6.07143,-3.67726 0.72678,-0.72122 1.82221,-1.31131 2.43427,-1.31131 1.20723,0 9.92829,-4.00249 10.7443,-4.93104 0.96924,-1.10291 8.51577,-4.50921 9.75,-4.40089 0.6875,0.0603 1.25,-0.29029 1.25,-0.77918 C 143,173.4 143.62686,173 144.39301,173 c 0.76616,0 1.65203,-0.675 1.96862,-1.5 0.31658,-0.825 1.25087,-1.5 2.07619,-1.5 1.60852,0 9.73156,-3.9233 10.56297,-5.10175 0.27544,-0.39041 3.53794,-1.95709 7.25,-3.48152 C 169.96286,159.8923 173,158.2749 173,157.82252 c 0,-0.45239 0.7875,-0.83253 1.75,-0.84476 0.9625,-0.0122 2.875,-0.90222 4.25,-1.97776 3.46455,-2.71001 10.72244,-2.62321 16.21921,0.19398 2.35443,1.2067 4.64065,2.7817 5.08048,3.5 0.43983,0.71831 1.39232,1.30602 2.11665,1.30602 2.00464,0 11.58366,4.16107 11.58366,5.03187 0,0.42087 3.375,1.99615 7.5,3.50062 4.125,1.50447 7.5,3.03853 7.5,3.40901 0,0.64645 4.44383,2.80519 10.25,4.97928 1.5125,0.56634 2.75,1.49086 2.75,2.05447 0,0.56361 0.51765,1.02475 1.15033,1.02475 1.78375,0 12.26162,5.2609 13.07235,6.56358 0.39747,0.63866 2.87247,1.73628 5.5,2.43915 2.62753,0.70287 5.22732,1.77729 5.77732,2.38761 0.55,0.61031 3.7,2.45966 7,4.10966 3.3,1.65 6.225,3.2944 6.5,3.65422 0.275,0.35982 3.5375,1.87018 7.25,3.35634 3.7125,1.48617 6.75,3.06937 6.75,3.51823 0,0.44886 1.6875,1.35414 3.75,2.01175 5.47178,1.7446 10.49813,4.16266 12.5275,6.02669 0.97763,0.89797 3.49176,2.14628 5.58695,2.77401 2.0952,0.62774 4.85167,2.04526 6.12551,3.15005 1.27383,1.10479 2.76042,2.00871 3.30352,2.00871 1.40546,0 10.14024,4.35088 10.53985,5.25 0.18334,0.4125 0.74452,0.75 1.24708,0.75 0.50255,0 3.58636,1.22054 6.85289,2.71232 9.7802,4.46647 9.91859,9.49203 0.36811,13.36828 -2.99856,1.21703 -5.98743,2.70927 -6.64193,3.31609 -0.65449,0.60682 -2.75813,1.82772 -4.67474,2.71311 -1.9166,0.88539 -4.83474,2.23539 -6.48474,3 -1.65,0.76461 -3.45,1.87124 -4,2.45918 -0.55,0.58793 -3.025,1.90689 -5.5,2.93102 -2.475,1.02413 -4.95,2.34637 -5.5,2.93831 -0.55,0.59195 -4.14964,2.35288 -7.99921,3.91319 -3.84956,1.56031 -7.22456,3.15634 -7.5,3.54675 -0.69104,0.97949 -8.83044,5.10175 -10.0734,5.10175 -0.55606,0 -1.85658,0.7875 -2.89004,1.75 -1.03347,0.9625 -4.16465,2.63656 -6.95819,3.72014 C 274.28562,280.55372 272,281.73895 272,282.104 c 0,0.36504 -2.48391,1.67186 -5.51981,2.90404 -3.03589,1.23218 -5.95266,2.97194 -6.4817,3.86614 -0.84632,1.43047 -1.08241,1.44559 -1.96488,0.12582 -0.61566,-0.92074 -1.0089,-1.03761 -1.0183,-0.30262 -0.008,0.65855 -2.3733,2.38172 -5.25528,3.82926 -2.88198,1.44754 -5.46948,2.93372 -5.75,3.30262 -0.83378,1.0965 -7.2001,4.00892 -11.76003,5.3799 -2.3375,0.70279 -4.25,1.84323 -4.25,2.53432 0,1.14143 -1.28524,1.68517 -3.25,1.37494 -0.4125,-0.0651 -0.75,0.25955 -0.75,0.72152 0,0.46197 -1.90751,1.46948 -4.23891,2.23891 -2.33139,0.76943 -4.97724,2.1373 -5.87966,3.03972 -0.90242,0.90242 -4.05741,2.43626 -7.01109,3.40855 -2.95369,0.97229 -5.59534,2.06269 -5.87034,2.42312 -1.00304,1.31465 -8,5.19037 -8,4.43132 0,-0.42986 -0.54,-0.24156 -1.2,0.41844 -1.83139,1.83139 -6.58193,1.38065 -14.2695,-1.35393 z M 79.83613,153.32726 c -2.089081,-0.55337 -3.515862,-6.84645 -4.268558,-18.82726 -0.785628,-12.50498 -1.065325,-13.18424 -6.400634,-15.5443 -2.528329,-1.1184 -4.837706,-2.38142 -5.13195,-2.80671 -0.294243,-0.42528 -3.170994,-1.82974 -6.39278,-3.12101 C 51.131942,110.41871 47,106.65401 47,103.33165 47,100.64223 49.493966,98 52.032473,98 c 1.039289,0 2.718058,-0.889228 3.730598,-1.976062 1.01254,-1.086833 2.71757,-2.132629 3.788955,-2.323989 C 62.084463,93.24763 69.27533,90.133783 69.964955,89.190858 70.25923,88.788497 71.7375,87.915598 73.25,87.251084 75.025735,86.470919 76,85.279259 76,83.887458 76,81.277911 78.03164,73.9257 79.174982,72.397659 79.628631,71.791371 80.292679,68.493178 80.650646,65.06834 81.353607,58.34277 82.845493,56 86.425406,56 c 2.577256,0 5.723107,2.644777 10.092875,8.485272 1.639945,2.1919 4.219219,5.044402 5.731719,6.338894 1.5125,1.294492 2.75,2.966259 2.75,3.715038 0,2.312204 2.86343,3.122988 8.29502,2.348744 C 116.15776,76.47988 121.0875,76.113155 124.25,76.073003 127.4125,76.032851 130,75.55 130,75 c 0,-0.55 1.77961,-1 3.95469,-1 3.72226,0 3.99299,0.204173 4.6064,3.473954 0.73876,3.93791 -2.84581,14.126149 -5.7269,16.277288 -0.9217,0.688184 -1.97221,2.600684 -2.33446,4.25 C 130.13748,99.650559 129.20184,101 128.42054,101 c -2.38859,0 -2.29649,7.93029 0.10773,9.27576 0.80945,0.45299 1.47173,1.34871 1.47173,1.9905 0,2.65375 3.37196,9.73374 4.63586,9.73374 0.75028,0 1.37845,0.7875 1.39594,1.75 0.0175,0.9625 0.6925,2.62351 1.5,3.69113 1.7701,2.34028 1.8573,4.61079 0.30768,8.01182 C 136.8068,137.71944 136.09082,138 131.33948,138 128.40277,138 126,137.64883 126,137.21963 c 0,-0.42921 -4.53826,-1.32309 -10.08502,-1.98641 -8.51929,-1.01879 -10.3047,-0.98635 -11.5,0.20894 -0.77824,0.77824 -1.41498,1.92368 -1.41498,2.54543 0,0.62174 -0.45,0.85233 -1,0.51241 -0.55,-0.33992 -1,0.0522 -1,0.87143 0,0.81921 -1.001236,1.63327 -2.224968,1.80902 -1.223733,0.17575 -2.774371,1.42561 -3.445864,2.77745 -0.671493,1.35185 -2.151802,2.80227 -3.289577,3.22316 -1.137774,0.42089 -2.477611,1.84082 -2.977414,3.1554 -1.146668,3.01597 -4.737077,4.17987 -9.226047,2.9908 z M 181.25,124.8033 C 179.4625,124.33003 178,123.50568 178,122.97141 178,122.43713 177.36514,122 176.58921,122 175.0113,122 171,114.42467 171,111.44478 c 0,-1.05807 0.76524,-3.77393 1.70053,-6.03525 4.11059,-9.938462 21.13732,-9.457854 25.3513,0.71559 1.21804,2.94062 0.589,9.17485 -1.13397,11.23839 -5.97201,7.15247 -9.83139,8.98507 -15.66786,7.43979 z M 182.89788,85.699522 179.5,83.399044 179.80425,58.449522 C 179.97342,44.577137 180.5933,31.724072 181.20043,29.5 182.44055,24.957144 188.34368,20 192.51335,20 193.88101,20 195,19.55 195,19 c 0,-0.55 0.675,-1 1.5,-1 0.825,0 1.5,0.377973 1.5,0.83994 0,0.461968 1.83241,1.44469 4.07202,2.183828 4.02117,1.327107 7.92798,5.036691 7.92798,7.527757 0,0.704995 0.53654,1.460654 1.19231,1.679244 1.49646,0.49882 1.61441,10.642925 0.13478,11.591361 -1.00354,0.643267 -1.8836,2.765523 -2.83972,6.847985 C 206.52968,57.029132 204.60864,63 203.87693,63 c -0.48231,0 -0.8879,1.0125 -0.90132,2.25 -0.0239,2.207907 -4.42861,18.646075 -5.1222,19.115917 -6.43689,4.360406 -10.01374,4.679359 -14.95553,1.333605 z"
         id="path5" />
      <path
         style="fill:#f3b54f"
         d="m 173.51679,523.02717 c -0.33068,-0.53505 -2.36198,-1.44694 -4.51401,-2.02642 -2.15203,-0.57948 -4.49553,-1.62498 -5.20778,-2.32333 -0.71225,-0.69835 -4.3325,-2.55396 -8.045,-4.12359 -3.7125,-1.56963 -6.75,-3.13165 -6.75,-3.47116 0,-0.33951 -2.8125,-1.70765 -6.25,-3.04031 -3.4375,-1.33266 -7.01766,-3.19726 -7.95591,-4.14355 -0.93825,-0.94629 -3.07575,-2.0214 -4.75,-2.38913 C 128.36984,501.14196 127,500.48309 127,500.04554 c 0,-0.43754 -1.42239,-1.08002 -3.16088,-1.42772 -1.73848,-0.34769 -3.77995,-1.51603 -4.53661,-2.59631 -0.75665,-1.08028 -3.13901,-2.43894 -5.29412,-3.01925 -2.15511,-0.58031 -4.50114,-1.62649 -5.21339,-2.32484 -0.71225,-0.69835 -4.3325,-2.55396 -8.045,-4.12359 C 97.0375,484.9842 94,483.3852 94,483.00048 c 0,-0.38471 -2.752199,-1.7797 -6.115997,-3.09998 -3.363798,-1.32027 -6.336943,-2.963 -6.606989,-3.6505 -0.270045,-0.6875 -1.256838,-1.25 -2.192873,-1.25 -0.936035,0 -2.57539,-0.66069 -3.643011,-1.4682 -1.067622,-0.8075 -2.643777,-1.4825 -3.502569,-1.5 -0.858791,-0.0175 -2.433791,-0.8193 -3.5,-1.7818 -2.024144,-1.82726 -4.663834,-3.19048 -10.273732,-5.30568 -1.834343,-0.69163 -3.867585,-1.74955 -4.518314,-2.35092 -1.865525,-1.72402 -6.89366,-4.26148 -9.826588,-4.95901 -1.47404,-0.35057 -3.295739,-1.19922 -4.04822,-1.88589 C 37.576441,453.74522 30.246143,450 28.520497,450 c -0.870797,0 -1.833936,-0.65323 -2.14031,-1.45163 -0.306374,-0.7984 -2.020997,-1.93478 -3.810273,-2.5253 -1.789276,-0.59051 -4.221508,-2.18728 -5.404958,-3.54836 C 15.981505,441.11362 14.560251,440 14.006613,440 12.909642,440 12.516177,258.4244 13.606989,255.58179 14.223876,253.97421 20,253.26852 20,254.80073 c 0,0.44041 2.025,1.78456 4.5,2.98701 l 4.5,2.18627 v 85.27709 85.2771 l 4.00686,1.7359 c 2.203773,0.95474 4.453773,1.7359 5,1.7359 0.546227,0 0.99314,0.39937 0.99314,0.88748 0,0.48812 3.016719,2.16961 6.703821,3.73665 3.687101,1.56703 7.802811,3.86767 9.146022,5.11251 1.343212,1.24485 3.244349,2.26336 4.224751,2.26336 0.980402,0 2.457549,0.675 3.282549,1.5 0.825,0.825 1.744842,1.5 2.044093,1.5 0.78795,0 12.005835,5.29791 12.598764,5.95006 0.931527,1.02457 7.484401,3.97723 10.276378,4.63044 1.527007,0.35726 3.23034,1.49779 3.785183,2.53453 0.554844,1.03673 1.525898,1.88497 2.157898,1.88497 1.606898,0 10.004551,4.12439 11.601971,5.69815 0.72678,0.71602 1.95043,1.30185 2.7192,1.30185 1.71283,0 9.83165,4.10582 10.2927,5.20518 0.18334,0.43715 0.85834,0.7967 1.5,0.79901 0.64167,0.002 3.38044,1.1273 6.08615,2.5 2.70571,1.37269 5.51821,2.49581 6.25,2.49581 0.73179,0 1.33052,0.34767 1.33052,0.7726 0,0.83401 4.52688,3.26773 9.75,5.24174 1.7875,0.67557 3.25,1.52464 3.25,1.88684 0,0.3622 2.25189,1.5324 5.0042,2.60045 2.75231,1.06805 6.1973,2.96711 7.65554,4.22014 1.45823,1.25303 3.24249,2.27823 3.96501,2.27823 1.4485,0 9.58077,3.98457 10.37525,5.08357 0.275,0.38041 2.1875,1.39426 4.25,2.25301 l 3.75,1.56137 v 7.44403 c 0,5.8655 -0.33542,7.57276 -1.58179,8.05103 -2.36924,0.90917 -5.22275,0.73227 -5.90142,-0.36584 z m 21.73321,0.31055 c -1.72571,-0.69634 -1.83247,-177.66157 -0.11065,-183.4085 0.97028,-3.23851 1.89774,-4.12762 6.25,-5.99154 2.81086,-1.20379 5.33565,-2.53164 5.61065,-2.95079 0.275,-0.41914 3.38075,-1.9721 6.90167,-3.45101 3.52092,-1.4789 7.12092,-3.50231 8,-4.49645 0.87908,-0.99415 3.96083,-2.62361 6.84833,-3.62103 2.8875,-0.99742 5.25,-2.12674 5.25,-2.5096 0,-0.38287 2.92184,-1.86581 6.49298,-3.29544 3.57113,-1.42962 7.39613,-3.50247 8.5,-4.60634 1.10386,-1.10386 2.69785,-2.00702 3.5422,-2.00702 1.40026,0 6.25916,-2.62867 7.46482,-4.03846 0.275,-0.32156 3.65,-1.8976 7.5,-3.50231 3.85,-1.60471 7.14409,-3.24677 7.3202,-3.64903 C 275.21229,294.91459 285.46226,290 286.93807,290 287.52213,290 288,289.62604 288,289.16898 c 0,-0.83336 1.28006,-1.54925 8.25,-4.61394 2.0625,-0.90688 3.75351,-1.96526 3.7578,-2.35196 0.01,-0.87036 4.90856,-3.20308 6.72675,-3.20308 1.19105,0 5.96268,-2.61247 7.26545,-3.97783 0.75236,-0.78851 9.6032,-5.02217 10.49929,-5.02217 0.42912,0 1.27983,-0.60394 1.89047,-1.34208 0.61063,-0.73815 3.58524,-2.36963 6.61024,-3.62552 3.025,-1.25588 5.725,-2.62636 6,-3.04551 0.275,-0.41914 3.40938,-1.98415 6.96529,-3.47778 3.55591,-1.49364 6.95612,-3.38696 7.55603,-4.20738 0.60791,-0.83137 2.17258,-1.33897 3.53471,-1.1467 L 359.5,253.5 359.76834,346 c 0.19691,67.8769 -0.0357,93.07652 -0.8739,94.66577 -0.62823,1.19117 -2.09899,2.48064 -3.26834,2.86548 -1.16936,0.38484 -2.3511,0.79795 -2.6261,0.91802 -0.275,0.12008 -1.84084,0.77126 -3.47965,1.44709 -1.6388,0.67582 -3.2138,1.59132 -3.5,2.03444 -0.7016,1.08631 -9.07601,5.0692 -10.65849,5.0692 -0.69436,0 -1.62234,0.62047 -2.06217,1.37883 -0.43983,0.75835 -3.27469,2.41305 -6.29969,3.6771 -3.025,1.26405 -6.32193,3.13671 -7.3265,4.16147 -1.00458,1.02476 -3.13198,2.1243 -4.72757,2.44341 -1.59559,0.31912 -3.41627,1.20099 -4.04595,1.9597 -0.62968,0.75872 -1.78359,1.37949 -2.56424,1.37949 -0.78065,0 -2.3854,0.9 -3.56611,2 -1.18072,1.1 -2.77997,2 -3.5539,2 -1.39692,0 -7.25747,2.93579 -8.21573,4.1156 -0.275,0.33858 -3.0875,1.83376 -6.25,3.32262 -3.1625,1.48886 -5.75,3.12434 -5.75,3.6344 C 281,483.58268 280.36653,484 279.59229,484 277.62259,484 268,489.09837 268,490.14197 c 0,0.47192 -0.7875,0.87234 -1.75,0.88983 -0.9625,0.0175 -2.62351,0.6925 -3.69113,1.5 -1.06762,0.80751 -2.67027,1.4682 -3.56144,1.4682 -0.89117,0 -2.49266,0.80261 -3.55887,1.78357 -1.06621,0.98096 -4.41356,2.82166 -7.43856,4.09043 -3.025,1.26878 -5.95,2.83723 -6.5,3.48545 -0.55,0.64823 -3.025,2.0114 -5.5,3.02928 -7.3188,3.00997 -9,3.90292 -9,4.78025 0,0.45706 -0.4377,0.83102 -0.97266,0.83102 -1.80531,0 -12.5206,5.38561 -13.32703,6.69829 -0.43983,0.71594 -1.33983,1.31698 -2,1.33564 -0.66017,0.0187 -3.00031,0.90339 -5.20031,1.96607 -3.88168,1.87498 -7.68756,2.37169 -10.25,1.33772 z M 104.5,439 c -1.1,-0.47269 -3.15265,-0.89106 -4.561439,-0.92971 C 98.52977,438.03163 96.411086,437.1 95.230375,436 94.049663,434.9 92.830163,434 92.520373,434 89.750969,434 77,422.78287 77,420.3466 77,419.60597 76.574555,419 76.054566,419 c -0.519989,0 -1.613944,-1.2375 -2.431012,-2.75 -3.687962,-6.8269 -4.891333,-10.07202 -5.363986,-14.465 -0.463925,-4.31186 -0.289497,-4.81424 2.040039,-5.87565 4.017267,-1.83039 9.577387,-0.34759 10.854013,2.8946 0.58387,1.48283 1.463162,3.47744 1.953981,4.43248 0.49082,0.95504 0.892399,2.42051 0.892399,3.25661 0,0.8361 1.125,2.49836 2.5,3.69391 1.375,1.19555 2.5,2.57471 2.5,3.06481 0,1.2028 2.615668,3.74824 3.851648,3.74824 0.546978,0 2.308014,1.31351 3.913412,2.91891 3.64506,3.64505 10.11998,5.47535 16.16384,4.56911 5.48861,-0.82299 7.92384,-2.03109 10.37468,-5.14683 1.9899,-2.52975 5.74032,-3.03539 10.13132,-1.36594 2.16197,0.82198 2.5651,1.60236 2.5651,4.96552 0,3.04545 -0.66496,4.64959 -2.80834,6.77475 -4.57565,4.53677 -8.52836,7.32361 -11.19166,7.89064 -1.375,0.29274 -3.53367,0.95111 -4.79705,1.46305 -2.80998,1.13863 -9.98309,1.09955 -12.70295,-0.0692 z m 51.34883,-30.68703 c -1.82005,-0.46467 -3.08864,-3.28998 -4.81935,-10.73333 -0.84403,-3.62996 -2.2105,-5.92473 -5.21037,-8.75 C 141.93918,385.17553 139,383.92685 139,385.93261 c 0,0.51294 -0.9,1.21826 -2,1.56739 -1.1,0.34913 -2,1.27945 -2,2.06739 0,0.78793 -0.45,1.43261 -1,1.43261 -0.55,0 -1,0.62686 -1,1.39301 0,1.68624 -2.15557,2.60699 -6.10323,2.60699 -2.1652,0 -3.23973,-0.65862 -4.07872,-2.5 -0.6265,-1.375 -1.51685,-2.5 -1.97857,-2.5 C 120.37777,390 120,388.65 120,387 c 0,-1.65 0.3375,-3.00351 0.75,-3.0078 0.87995,-0.009 3.25,-4.8362 3.25,-6.61922 0,-0.67555 1.8,-2.02244 4,-2.99308 2.2,-0.97064 4,-2.12819 4,-2.57235 0,-0.44415 3.375,-0.80755 7.5,-0.80755 4.125,0 7.5,0.39541 7.5,0.87868 0,0.48327 1.35,1.43787 3,2.12132 1.65,0.68345 3,1.63805 3,2.12132 0,0.48327 0.51933,0.87868 1.15407,0.87868 2.24509,0 8.36931,8.47434 10.0812,13.94979 2.05964,6.58768 2.22729,11.24976 0.51473,14.31378 -0.6875,1.23004 -1.26367,2.3251 -1.28038,2.43348 -0.0771,0.50039 -6.15063,0.99125 -7.62079,0.61592 z M 79,373.25882 c -2.546628,-0.99026 -3.934997,-3.59676 -3.968197,-7.4498 C 75.014312,363.77898 74.55,361.83992 74,361.5 c -0.55,-0.33992 -1,-1.49148 -1,-2.55902 0,-1.06754 -0.3375,-1.94306 -0.75,-1.94561 -0.4125,-0.003 -2.188095,-1.35254 -3.945766,-3 C 64.938137,350.84035 61,350.00354 61,352.4433 c 0,0.79381 -0.7875,2.03131 -1.75,2.75 -0.9625,0.71868 -2.388541,2.5442 -3.16898,4.0567 -1.004732,1.94718 -2.189651,2.75 -4.05887,2.75 -4.14269,0 -6.170733,-2.13861 -6.729553,-7.09644 -0.723778,-6.42134 2.531379,-13.07653 7.226316,-14.77424 C 54.433511,339.43699 56,338.44967 56,337.93527 56,337.42087 58.925,337 62.5,337 c 3.582504,0 6.5,0.44029 6.5,0.98095 0,0.53952 1.198325,1.28171 2.662944,1.6493 C 75.625869,340.62488 83,347.20058 83,349.73978 83,350.4329 83.45,351 84,351 c 0.55,0 1,0.9 1,2 0,1.1 0.401855,2 0.893011,2 1.311294,0 2.162638,2.78055 2.752916,8.99122 0.444409,4.67589 0.202478,5.84897 -1.600134,7.75878 -2.054519,2.1767 -4.937763,2.71739 -8.045793,1.50882 z m 100.53529,-52.90623 c -3.8306,-1.3027 -7.34046,-3.03996 -7.79969,-3.86057 C 171.27636,315.67141 170.24635,315 169.44669,315 c -0.79967,0 -3.13314,-0.9 -5.18551,-2 -2.05236,-1.1 -4.25258,-2 -4.88938,-2 -0.6368,0 -1.41684,-0.675 -1.73343,-1.5 -0.31658,-0.825 -1.1802,-1.5 -1.91916,-1.5 -1.975,0 -9.48279,-3.79075 -9.88246,-4.98974 -0.18884,-0.56654 -1.37762,-1.22926 -2.64172,-1.4727 -1.2641,-0.24344 -3.69425,-1.13898 -5.40033,-1.99009 C 136.08861,298.69636 134.07274,298 133.31498,298 c -0.75776,0 -1.63677,-0.675 -1.95335,-1.5 -0.31659,-0.825 -1.42746,-1.5 -2.46862,-1.5 C 127.85186,295 127,294.52344 127,293.94098 c 0,-0.58246 -0.39901,-0.81241 -0.88669,-0.51101 -0.48768,0.30141 -1.44278,-0.12204 -2.12245,-0.94098 C 123.3112,291.67005 121.90581,291 120.86777,291 c -1.03804,0 -2.65795,-0.9 -3.5998,-2 -0.94185,-1.1 -2.71089,-2 -3.93119,-2 -1.22031,0 -2.49686,-0.45 -2.83678,-1 -0.33992,-0.55 -1.39213,-1 -2.33826,-1 -0.94612,0 -2.35142,-0.87575 -3.1229,-1.94611 -0.77147,-1.07036 -4.13331,-2.93739 -7.470755,-4.14897 C 94.230638,277.69334 91.05,276.18785 90.5,275.55937 c -0.55,-0.62847 -3.145712,-1.95179 -5.768248,-2.9407 -2.622537,-0.98891 -5.322537,-2.33033 -6,-2.98092 C 78.054288,268.98716 74.35,267.14272 70.5,265.53899 c -3.85,-1.60373 -7.23403,-3.25271 -7.520066,-3.66441 -0.286037,-0.41169 -2.607345,-1.64324 -5.158464,-2.73678 -2.551119,-1.09354 -5.027871,-2.6842 -5.503892,-3.5348 -0.476022,-0.85061 -1.823325,-1.69273 -2.994006,-1.87139 -1.170681,-0.17866 -2.7349,-0.79653 -3.476041,-1.37305 C 45.106389,251.78204 42.3625,250.73203 39.75,250.02521 37.020054,249.28661 35,248.15744 35,247.37004 c 0,-0.75352 -0.3375,-1.2778 -0.75,-1.16505 -0.4125,0.11274 -2.465408,-0.38137 -4.562018,-1.09802 -7.15113,-2.44437 -6.950534,-10.28264 0.345533,-13.50166 C 32.034703,230.72239 34.19583,230 34.83602,230 35.476209,230 36,229.50186 36,228.89301 c 0,-0.60884 0.692034,-0.84143 1.537854,-0.51686 0.861741,0.33068 1.779405,-0.0393 2.087273,-0.84163 0.30218,-0.78747 2.760146,-2.16605 5.462146,-3.06351 C 47.789273,223.57355 50,222.42543 50,221.91963 50,221.41383 50.9,221 52,221 c 1.1,0 2,-0.37845 2,-0.84101 0,-0.46256 3.15,-2.1091 7,-3.65899 3.85,-1.54989 7,-3.20253 7,-3.67254 0,-1.22929 10.867426,-6.02743 12.027624,-5.31039 C 80.562431,207.8476 81,207.47793 81,206.69558 81,205.37703 91.339574,200 93.875046,200 94.493771,200 95,199.55857 95,199.01905 c 0,-0.53952 1.222426,-1.28776 2.716501,-1.66274 1.494076,-0.37499 3.603929,-1.50857 4.688559,-2.51906 C 103.4897,193.82676 105.19227,193 106.18856,193 107.18485,193 108,192.65233 108,192.2274 c 0,-1.19353 6.95201,-4.65662 9.03326,-4.49985 1.22705,0.0924 1.66716,-0.34467 1.30287,-1.29398 -0.30256,-0.78847 0.0605,-1.50211 0.80688,-1.58588 0.74635,-0.0838 1.83823,-0.20378 2.42642,-0.26668 0.58819,-0.0629 2.25986,-0.89436 3.71482,-1.84769 C 126.73921,181.78 128.36332,181 128.89339,181 c 0.53006,0 1.5584,-0.5625 2.28518,-1.25 1.74593,-1.65155 8.50078,-4.75 10.35536,-4.75 0.80634,0 1.46607,-0.45 1.46607,-1 0,-0.55 0.62686,-1 1.39301,-1 0.76616,0 1.60962,-0.5625 1.87437,-1.25 0.26474,-0.6875 2.47689,-1.83678 4.91588,-2.55395 2.43899,-0.71717 5.71552,-2.40467 7.28117,-3.75 C 160.03009,164.10072 161.68679,163 162.146,163 c 1.65901,0 10.854,-4.39451 10.854,-5.18739 0,-0.44693 0.7875,-0.82262 1.75,-0.83485 0.9625,-0.0122 2.875,-0.90222 4.25,-1.97776 3.44292,-2.69309 10.27191,-2.59748 16.25,0.22751 2.6125,1.23456 4.75,2.81341 4.75,3.50857 0,0.69516 0.86269,1.26392 1.91709,1.26392 2.52162,0 10.8008,3.57503 12.71716,5.49139 0.82973,0.82974 2.15146,1.50861 2.93718,1.50861 0.78571,0 1.42857,0.525 1.42857,1.16667 0,0.64166 0.26057,0.9061 0.57904,0.58763 0.74588,-0.74588 9.42096,2.19064 9.42096,3.189 0,0.41542 2.00072,1.58037 4.44606,2.58878 2.44533,1.00841 4.17496,2.27211 3.84362,2.80822 -0.35779,0.57891 0.29809,0.73926 1.61512,0.39485 1.4208,-0.37155 2.41365,-0.0689 2.76336,0.84247 0.3002,0.78231 1.21571,1.42238 2.03446,1.42238 0.81875,0 2.68311,0.83438 4.14301,1.85417 1.4599,1.0198 3.89187,2.15337 5.40437,2.51905 1.5125,0.36569 2.75,1.25944 2.75,1.98612 0,0.77781 2.30411,1.87398 5.60207,2.66515 3.08114,0.73915 5.82928,1.93602 6.10699,2.65971 0.2777,0.72369 0.91642,1.3158 1.41937,1.3158 1.13595,0 9.24939,5.22509 9.7049,6.25 0.18334,0.4125 0.93079,0.75 1.66102,0.75 2.7605,0 12.50565,4.33216 12.50565,5.55933 0,0.70497 1.4625,1.59144 3.25,1.96994 4.57586,0.96894 12.91669,4.59728 15.0275,6.53711 0.97763,0.89844 3.54503,2.16309 5.70533,2.81033 2.16031,0.64724 4.51884,1.76782 5.24119,2.49017 0.72235,0.72234 4.22995,2.60505 7.79467,4.18379 3.56472,1.57874 6.70631,3.11318 6.98131,3.40988 0.59673,0.64382 8.22528,4.37901 9.13636,4.47347 0.35,0.0363 1.83167,1.26128 3.29259,2.7222 4.06182,4.06182 2.80233,7.11175 -4.09246,9.91014 -3.01786,1.22486 -6.02251,2.72351 -6.67701,3.33033 -0.65449,0.60682 -2.75813,1.82772 -4.67474,2.71311 -1.9166,0.88539 -4.83474,2.23468 -6.48474,2.99841 -1.65,0.76373 -3.225,1.65021 -3.5,1.96994 -0.275,0.31974 -3.2,1.88029 -6.5,3.46789 -3.3,1.5876 -6.59464,3.46421 -7.32143,4.17025 -0.72678,0.70604 -2.16273,1.28371 -3.19098,1.28371 -1.02826,0 -2.14767,0.45 -2.48759,1 -0.33992,0.55 -1.37898,1.00055 -2.30902,1.00122 -0.93004,6.7e-4 -2.99847,1.12567 -4.59652,2.5 -1.59805,1.37433 -3.73555,2.49878 -4.75,2.49878 -1.01445,0 -1.84446,0.44143 -1.84446,0.98095 0,0.53952 -1.22243,1.28776 -2.7165,1.66274 -1.49408,0.37499 -3.48346,1.39607 -4.42084,2.26906 -0.93739,0.87299 -3.98996,2.47381 -6.7835,3.55739 -2.79354,1.08358 -5.07916,2.28434 -5.07916,2.66836 0,0.38402 -2.7,1.74516 -6,3.02477 -3.3,1.2796 -6,2.89134 -6,3.58164 0,1.62392 -1.68303,1.62758 -2.33772,0.005 -0.36816,-0.9124 -0.52571,-0.92661 -0.58333,-0.0526 -0.0434,0.65855 -2.43694,2.38172 -5.31892,3.82926 -2.88198,1.44754 -5.46948,2.94288 -5.75,3.32298 -0.78549,1.06433 -6.29251,3.51916 -8.32669,3.71173 -0.99917,0.0946 -2.32667,0.68198 -2.95,1.30531 C 234.11,301.49 232.79,302 231.8,302 c -0.99,0 -1.8,0.675 -1.8,1.5 0,1.35287 -1.1873,1.94411 -3.25,1.61842 -0.4125,-0.0651 -0.75,0.2828 -0.75,0.77317 0,0.79144 -2.80121,1.8869 -6.89989,2.69831 -0.76994,0.15242 -1.74646,0.83788 -2.17004,1.52324 -0.42357,0.68536 -1.54857,1.36036 -2.5,1.5 -0.95142,0.13964 -1.9999,0.6686 -2.32996,1.17546 -0.33006,0.50687 -2.40011,1.502 -4.60011,2.2114 -2.2,0.7094 -4.225,1.57251 -4.5,1.91801 -1.24755,1.56738 -6.11772,4.08199 -7.9058,4.08199 -1.08689,0 -2.25428,0.45 -2.5942,1 -0.9398,1.52063 -5.26531,0.97099 -12.96471,-1.64741 z M 77.118715,148.55718 C 76.503422,146.11363 76,141.18578 76,137.6064 c 0,-3.57938 -0.491585,-8.80014 -1.092411,-11.60169 -1.031079,-4.80776 -1.367941,-5.21405 -6,-7.23661 C 66.208415,117.58952 64,116.25955 64,115.81261 64,115.36568 63.563336,115 63.029635,115 c -0.5337,0 -3.539779,-1.17528 -6.680175,-2.61172 -6.068981,-2.77601 -9.261802,-5.75083 -9.316191,-8.68009 -0.04478,-2.41179 3.512936,-6.096305 5.244793,-5.431729 0.764515,0.293372 2.202739,-0.548816 3.196055,-1.871529 C 56.467433,95.082219 58.105075,94 59.113321,94 c 1.843311,0 10.244835,-3.636064 12.708355,-5.5 3.516235,-2.660437 5.196278,-4.661932 4.652179,-5.542304 -0.60802,-0.983797 0.734587,-5.885269 3.179879,-11.608825 C 80.39418,69.61575 81,66.390054 81,64.180658 81,57.844297 81.657026,57 86.587937,57 c 3.722642,0 4.459412,0.340474 4.947827,2.286474 0.315628,1.257561 1.530607,2.720061 2.699953,3.25 1.169347,0.529939 2.832179,2.367483 3.695184,4.08343 0.863004,1.715947 2.461109,3.515947 3.551349,4 1.09023,0.484053 2.51204,1.953387 3.15956,3.265186 1.50046,3.039738 3.14954,4.044664 5.77296,3.517959 1.14688,-0.230259 6.13523,-0.658055 11.08523,-0.950659 4.95,-0.292603 9.15,-0.964092 9.33333,-1.492198 C 131.01667,74.432086 132.68378,74 134.53802,74 c 3.06428,0 3.43144,0.320304 4.03108,3.516665 C 139.23135,81.046738 137.56211,87 135.91006,87 c -0.46601,0 -0.6217,0.587883 -0.34598,1.306406 0.27573,0.718523 -0.63785,2.631023 -2.03016,4.25 -1.39231,1.618977 -2.53203,3.506094 -2.5327,4.193594 -6.7e-4,0.6875 -0.47778,1.25 -1.06024,1.25 -0.58246,0 -0.79799,0.422343 -0.47896,0.93854 0.31902,0.516196 -0.0497,1.3037 -0.81929,1.75 -2.39868,1.39097 -2.99995,6.81138 -0.97966,8.83167 0.97219,0.9722 2.56654,4.03623 3.54299,6.80896 0.97645,2.77272 2.1408,5.29546 2.58744,5.60607 0.44664,0.31062 1.82404,2.23044 3.06088,4.26628 1.98194,3.26225 2.11945,4.18197 1.15867,7.75 C 136.9719,137.81806 136.74488,138 132.96146,138 130.78266,138 129,137.6143 129,137.14289 c 0,-0.47141 -3.4875,-1.13814 -7.75,-1.48163 -4.2625,-0.3435 -9.42317,-0.89258 -11.46816,-1.22019 -3.09966,-0.49657 -4.13933,-0.17449 -6.25,1.93619 -1.39251,1.3925 -2.53184,3.00229 -2.53184,3.57729 0,0.575 -0.92093,1.04545 -2.04651,1.04545 -1.216176,0 -2.732351,1.19501 -3.73689,2.94532 -0.929709,1.61992 -2.478361,3.15138 -3.44145,3.40323 -0.963088,0.25185 -2.19535,1.62646 -2.738359,3.05468 C 88.159039,152.7119 87.505191,153 83.143466,153 H 78.23743 Z M 181.25,124.8033 C 179.4625,124.33003 178,123.50568 178,122.97141 178,122.43713 177.36514,122 176.58921,122 175.0113,122 171,114.42467 171,111.44478 c 0,-1.05807 0.76524,-3.77393 1.70053,-6.03525 4.11059,-9.938462 21.13732,-9.457854 25.3513,0.71559 1.21804,2.94062 0.589,9.17485 -1.13397,11.23839 -5.97201,7.15247 -9.83139,8.98507 -15.66786,7.43979 z M 182.89788,85.699522 179.5,83.399044 179.80425,58.449522 C 179.97342,44.577137 180.5933,31.724072 181.20043,29.5 182.44055,24.957144 188.34368,20 192.51335,20 193.88101,20 195,19.55 195,19 c 0,-0.55 0.675,-1 1.5,-1 0.825,0 1.5,0.377973 1.5,0.83994 0,0.461968 1.83241,1.44469 4.07202,2.183828 4.02117,1.327107 7.92798,5.036691 7.92798,7.527757 0,0.704995 0.53654,1.460654 1.19231,1.679244 1.49646,0.49882 1.61441,10.642925 0.13478,11.591361 -1.00354,0.643267 -1.8836,2.765523 -2.83972,6.847985 C 206.52968,57.029132 204.60864,63 203.87693,63 c -0.48231,0 -0.8879,1.0125 -0.90132,2.25 -0.0239,2.207907 -4.42861,18.646075 -5.1222,19.115917 -6.43689,4.360406 -10.01374,4.679359 -14.95553,1.333605 z"
         id="path4" />
      <path
         style="fill:#f39d0a"
         d="m 173.51679,523.02717 c -0.33068,-0.53505 -2.36198,-1.44694 -4.51401,-2.02642 -2.15203,-0.57948 -4.49553,-1.62498 -5.20778,-2.32333 -0.71225,-0.69835 -4.3325,-2.55396 -8.045,-4.12359 -3.7125,-1.56963 -6.75,-3.13165 -6.75,-3.47116 0,-0.33951 -2.8125,-1.70765 -6.25,-3.04031 -3.4375,-1.33266 -7.01766,-3.19726 -7.95591,-4.14355 -0.93825,-0.94629 -3.07575,-2.0214 -4.75,-2.38913 C 128.36984,501.14196 127,500.48309 127,500.04554 c 0,-0.43754 -1.42239,-1.08002 -3.16088,-1.42772 -1.73848,-0.34769 -3.77995,-1.51603 -4.53661,-2.59631 -0.75665,-1.08028 -3.13901,-2.43894 -5.29412,-3.01925 -2.15511,-0.58031 -4.50114,-1.62649 -5.21339,-2.32484 -0.71225,-0.69835 -4.3325,-2.55396 -8.045,-4.12359 C 97.0375,484.9842 94,483.3852 94,483.00048 c 0,-0.38471 -2.752199,-1.7797 -6.115997,-3.09998 -3.363798,-1.32027 -6.336943,-2.963 -6.606989,-3.6505 -0.270045,-0.6875 -1.256838,-1.25 -2.192873,-1.25 -0.936035,0 -2.57539,-0.66069 -3.643011,-1.4682 -1.067622,-0.8075 -2.643777,-1.4825 -3.502569,-1.5 -0.858791,-0.0175 -2.433791,-0.8193 -3.5,-1.7818 -2.024144,-1.82726 -4.663834,-3.19048 -10.273732,-5.30568 -1.834343,-0.69163 -3.867585,-1.74955 -4.518314,-2.35092 -1.865525,-1.72402 -6.89366,-4.26148 -9.826588,-4.95901 -1.47404,-0.35057 -3.295739,-1.19922 -4.04822,-1.88589 C 37.576441,453.74522 30.246143,450 28.520497,450 c -0.870797,0 -1.833936,-0.65323 -2.14031,-1.45163 -0.306374,-0.7984 -2.020997,-1.93478 -3.810273,-2.5253 -1.789276,-0.59051 -4.221508,-2.18728 -5.404958,-3.54836 C 15.981505,441.11362 14.560251,440 14.006613,440 12.909642,440 12.516177,258.4244 13.606989,255.58179 14.223876,253.97421 20,253.26852 20,254.80073 c 0,0.44041 2.025,1.78456 4.5,2.98701 l 4.5,2.18627 v 85.27709 85.2771 l 4.00686,1.7359 c 2.203773,0.95474 4.453773,1.7359 5,1.7359 0.546227,0 0.99314,0.39937 0.99314,0.88748 0,0.48812 3.016719,2.16961 6.703821,3.73665 3.687101,1.56703 7.802811,3.86767 9.146022,5.11251 1.343212,1.24485 3.244349,2.26336 4.224751,2.26336 0.980402,0 2.457549,0.675 3.282549,1.5 0.825,0.825 1.744842,1.5 2.044093,1.5 0.78795,0 12.005835,5.29791 12.598764,5.95006 0.931527,1.02457 7.484401,3.97723 10.276378,4.63044 1.527007,0.35726 3.23034,1.49779 3.785183,2.53453 0.554844,1.03673 1.525898,1.88497 2.157898,1.88497 1.606898,0 10.004551,4.12439 11.601971,5.69815 0.72678,0.71602 1.95043,1.30185 2.7192,1.30185 1.71283,0 9.83165,4.10582 10.2927,5.20518 0.18334,0.43715 0.85834,0.7967 1.5,0.79901 0.64167,0.002 3.38044,1.1273 6.08615,2.5 2.70571,1.37269 5.51821,2.49581 6.25,2.49581 0.73179,0 1.33052,0.34767 1.33052,0.7726 0,0.83401 4.52688,3.26773 9.75,5.24174 1.7875,0.67557 3.25,1.52464 3.25,1.88684 0,0.3622 2.25189,1.5324 5.0042,2.60045 2.75231,1.06805 6.1973,2.96711 7.65554,4.22014 1.45823,1.25303 3.24249,2.27823 3.96501,2.27823 1.4485,0 9.58077,3.98457 10.37525,5.08357 0.275,0.38041 2.1875,1.39426 4.25,2.25301 l 3.75,1.56137 v 7.44403 c 0,5.8655 -0.33542,7.57276 -1.58179,8.05103 -2.36924,0.90917 -5.22275,0.73227 -5.90142,-0.36584 z m 21.73321,0.31055 c -1.72571,-0.69634 -1.83247,-177.66157 -0.11065,-183.4085 0.97028,-3.23851 1.89774,-4.12762 6.25,-5.99154 2.81086,-1.20379 5.33565,-2.53164 5.61065,-2.95079 0.275,-0.41914 3.38075,-1.9721 6.90167,-3.45101 3.52092,-1.4789 7.12092,-3.50231 8,-4.49645 0.87908,-0.99415 3.96083,-2.62361 6.84833,-3.62103 2.8875,-0.99742 5.25,-2.12674 5.25,-2.5096 0,-0.38287 2.92184,-1.86581 6.49298,-3.29544 3.57113,-1.42962 7.39613,-3.50247 8.5,-4.60634 1.10386,-1.10386 2.69785,-2.00702 3.5422,-2.00702 1.40026,0 6.25916,-2.62867 7.46482,-4.03846 0.275,-0.32156 3.65,-1.8976 7.5,-3.50231 3.85,-1.60471 7.14409,-3.24677 7.3202,-3.64903 C 275.21229,294.91459 285.46226,290 286.93807,290 287.52213,290 288,289.62604 288,289.16898 c 0,-0.83336 1.28006,-1.54925 8.25,-4.61394 2.0625,-0.90688 3.75351,-1.96526 3.7578,-2.35196 0.01,-0.87036 4.90856,-3.20308 6.72675,-3.20308 1.19105,0 5.96268,-2.61247 7.26545,-3.97783 0.75236,-0.78851 9.6032,-5.02217 10.49929,-5.02217 0.42912,0 1.27983,-0.60394 1.89047,-1.34208 0.61063,-0.73815 3.58524,-2.36963 6.61024,-3.62552 3.025,-1.25588 5.725,-2.62636 6,-3.04551 0.275,-0.41914 3.40938,-1.98415 6.96529,-3.47778 3.55591,-1.49364 6.95612,-3.38696 7.55603,-4.20738 0.60791,-0.83137 2.17258,-1.33897 3.53471,-1.1467 L 359.5,253.5 359.76834,346 c 0.19691,67.8769 -0.0357,93.07652 -0.8739,94.66577 -0.62823,1.19117 -2.09899,2.48064 -3.26834,2.86548 -1.16936,0.38484 -2.3511,0.79795 -2.6261,0.91802 -0.275,0.12008 -1.84084,0.77126 -3.47965,1.44709 -1.6388,0.67582 -3.2138,1.59132 -3.5,2.03444 -0.7016,1.08631 -9.07601,5.0692 -10.65849,5.0692 -0.69436,0 -1.62234,0.62047 -2.06217,1.37883 -0.43983,0.75835 -3.27469,2.41305 -6.29969,3.6771 -3.025,1.26405 -6.32193,3.13671 -7.3265,4.16147 -1.00458,1.02476 -3.13198,2.1243 -4.72757,2.44341 -1.59559,0.31912 -3.41627,1.20099 -4.04595,1.9597 -0.62968,0.75872 -1.78359,1.37949 -2.56424,1.37949 -0.78065,0 -2.3854,0.9 -3.56611,2 -1.18072,1.1 -2.77997,2 -3.5539,2 -1.39692,0 -7.25747,2.93579 -8.21573,4.1156 -0.275,0.33858 -3.0875,1.83376 -6.25,3.32262 -3.1625,1.48886 -5.75,3.12434 -5.75,3.6344 C 281,483.58268 280.36653,484 279.59229,484 277.62259,484 268,489.09837 268,490.14197 c 0,0.47192 -0.7875,0.87234 -1.75,0.88983 -0.9625,0.0175 -2.62351,0.6925 -3.69113,1.5 -1.06762,0.80751 -2.67027,1.4682 -3.56144,1.4682 -0.89117,0 -2.49266,0.80261 -3.55887,1.78357 -1.06621,0.98096 -4.41356,2.82166 -7.43856,4.09043 -3.025,1.26878 -5.95,2.83723 -6.5,3.48545 -0.55,0.64823 -3.025,2.0114 -5.5,3.02928 -7.3188,3.00997 -9,3.90292 -9,4.78025 0,0.45706 -0.4377,0.83102 -0.97266,0.83102 -1.80531,0 -12.5206,5.38561 -13.32703,6.69829 -0.43983,0.71594 -1.33983,1.31698 -2,1.33564 -0.66017,0.0187 -3.00031,0.90339 -5.20031,1.96607 -3.88168,1.87498 -7.68756,2.37169 -10.25,1.33772 z M 104.5,439 c -1.1,-0.47269 -3.15265,-0.89106 -4.561439,-0.92971 C 98.52977,438.03163 96.411086,437.1 95.230375,436 94.049663,434.9 92.830163,434 92.520373,434 89.750969,434 77,422.78287 77,420.3466 77,419.60597 76.574555,419 76.054566,419 c -0.519989,0 -1.613944,-1.2375 -2.431012,-2.75 -3.687962,-6.8269 -4.891333,-10.07202 -5.363986,-14.465 -0.463925,-4.31186 -0.289497,-4.81424 2.040039,-5.87565 4.017267,-1.83039 9.577387,-0.34759 10.854013,2.8946 0.58387,1.48283 1.463162,3.47744 1.953981,4.43248 0.49082,0.95504 0.892399,2.42051 0.892399,3.25661 0,0.8361 1.125,2.49836 2.5,3.69391 1.375,1.19555 2.5,2.57471 2.5,3.06481 0,1.2028 2.615668,3.74824 3.851648,3.74824 0.546978,0 2.308014,1.31351 3.913412,2.91891 3.64506,3.64505 10.11998,5.47535 16.16384,4.56911 5.48861,-0.82299 7.92384,-2.03109 10.37468,-5.14683 1.9899,-2.52975 5.74032,-3.03539 10.13132,-1.36594 2.16197,0.82198 2.5651,1.60236 2.5651,4.96552 0,3.04545 -0.66496,4.64959 -2.80834,6.77475 -4.57565,4.53677 -8.52836,7.32361 -11.19166,7.89064 -1.375,0.29274 -3.53367,0.95111 -4.79705,1.46305 -2.80998,1.13863 -9.98309,1.09955 -12.70295,-0.0692 z m 51.34883,-30.68703 c -1.82005,-0.46467 -3.08864,-3.28998 -4.81935,-10.73333 -0.84403,-3.62996 -2.2105,-5.92473 -5.21037,-8.75 C 141.93918,385.17553 139,383.92685 139,385.93261 c 0,0.51294 -0.9,1.21826 -2,1.56739 -1.1,0.34913 -2,1.27945 -2,2.06739 0,0.78793 -0.45,1.43261 -1,1.43261 -0.55,0 -1,0.62686 -1,1.39301 0,1.68624 -2.15557,2.60699 -6.10323,2.60699 -2.1652,0 -3.23973,-0.65862 -4.07872,-2.5 -0.6265,-1.375 -1.51685,-2.5 -1.97857,-2.5 C 120.37777,390 120,388.65 120,387 c 0,-1.65 0.3375,-3.00351 0.75,-3.0078 0.87995,-0.009 3.25,-4.8362 3.25,-6.61922 0,-0.67555 1.8,-2.02244 4,-2.99308 2.2,-0.97064 4,-2.12819 4,-2.57235 0,-0.44415 3.375,-0.80755 7.5,-0.80755 4.125,0 7.5,0.39541 7.5,0.87868 0,0.48327 1.35,1.43787 3,2.12132 1.65,0.68345 3,1.63805 3,2.12132 0,0.48327 0.51933,0.87868 1.15407,0.87868 2.24509,0 8.36931,8.47434 10.0812,13.94979 2.05964,6.58768 2.22729,11.24976 0.51473,14.31378 -0.6875,1.23004 -1.26367,2.3251 -1.28038,2.43348 -0.0771,0.50039 -6.15063,0.99125 -7.62079,0.61592 z M 79,373.25882 c -2.546628,-0.99026 -3.934997,-3.59676 -3.968197,-7.4498 C 75.014312,363.77898 74.55,361.83992 74,361.5 c -0.55,-0.33992 -1,-1.49148 -1,-2.55902 0,-1.06754 -0.3375,-1.94306 -0.75,-1.94561 -0.4125,-0.003 -2.188095,-1.35254 -3.945766,-3 C 64.938137,350.84035 61,350.00354 61,352.4433 c 0,0.79381 -0.7875,2.03131 -1.75,2.75 -0.9625,0.71868 -2.388541,2.5442 -3.16898,4.0567 -1.004732,1.94718 -2.189651,2.75 -4.05887,2.75 -4.14269,0 -6.170733,-2.13861 -6.729553,-7.09644 -0.723778,-6.42134 2.531379,-13.07653 7.226316,-14.77424 C 54.433511,339.43699 56,338.44967 56,337.93527 56,337.42087 58.925,337 62.5,337 c 3.582504,0 6.5,0.44029 6.5,0.98095 0,0.53952 1.198325,1.28171 2.662944,1.6493 C 75.625869,340.62488 83,347.20058 83,349.73978 83,350.4329 83.45,351 84,351 c 0.55,0 1,0.9 1,2 0,1.1 0.401855,2 0.893011,2 1.311294,0 2.162638,2.78055 2.752916,8.99122 0.444409,4.67589 0.202478,5.84897 -1.600134,7.75878 -2.054519,2.1767 -4.937763,2.71739 -8.045793,1.50882 z m 103.8037,-52.18569 c -2.03297,-1.01596 -3.8725,-1.671 -4.08785,-1.45565 -0.7915,0.79151 -6.57279,-1.80228 -7.10429,-3.18736 C 171.30973,315.64356 170.20933,315 169.16624,315 c -1.04309,0 -3.04069,-0.9 -4.43911,-2 -1.39842,-1.1 -3.43597,-2 -4.52787,-2 -1.09191,0 -2.2443,-0.675 -2.56089,-1.5 -0.31658,-0.825 -1.19559,-1.5 -1.95335,-1.5 -2.14353,0 -7.93887,-3.09043 -10.51089,-5.60505 -1.27922,-1.25067 -2.9087,-2.0503 -3.62106,-1.77694 -0.71235,0.27335 -1.99607,-0.20387 -2.8527,-1.0605 C 137.84374,298.70088 135.98571,298 134.57143,298 132.95238,298 132,297.44444 132,296.5 c 0,-0.93333 -0.94444,-1.5 -2.5,-1.5 -1.375,0 -2.5,-0.47656 -2.5,-1.05902 0,-0.58246 -0.39901,-0.81241 -0.88669,-0.51101 -0.48768,0.30141 -1.44278,-0.12204 -2.12245,-0.94098 C 123.3112,291.67005 121.90581,291 120.86777,291 c -1.03804,0 -2.65795,-0.9 -3.5998,-2 -0.94185,-1.1 -2.73744,-2 -3.99021,-2 C 112.02499,287 111,286.55 111,286 c 0,-0.55 -0.675,-1 -1.5,-1 -0.825,0 -1.5,-0.45 -1.5,-1 0,-0.55 -0.675,-1 -1.5,-1 -0.825,0 -1.5,-0.41968 -1.5,-0.93261 0,-0.51294 -1.0125,-1.21868 -2.25,-1.56831 C 97.558508,279.03232 90,275.70348 90,274.88386 90,274.39774 89.467076,274 88.815724,274 87.515391,274 78.800597,269.99998 78,269.03567 c -0.275,-0.33123 -3.65,-1.90956 -7.5,-3.5074 -3.85,-1.59783 -7.23403,-3.24199 -7.520066,-3.65369 -0.286037,-0.41169 -2.607345,-1.64324 -5.158464,-2.73678 -2.551119,-1.09354 -5.027871,-2.6842 -5.503892,-3.5348 -0.476022,-0.85061 -1.90422,-1.70508 -3.173774,-1.89882 -1.269554,-0.19375 -2.608773,-0.81654 -2.976042,-1.38398 -0.367269,-0.56745 -2.334788,-1.33817 -4.372264,-1.71274 -2.145535,-0.39442 -3.582206,-1.19158 -3.413895,-1.89424 0.159834,-0.66727 0.10186,-0.87572 -0.128831,-0.46322 -0.692413,1.23811 -3.252372,0.84524 -3.258021,-0.5 -0.0029,-0.6875 -2.140387,-1.925 -4.75,-2.75 -5.104589,-1.61376 -5.871982,-2.94533 -4.812079,-8.34986 0.471446,-2.40394 1.518486,-3.56468 4.42017,-4.90014 C 31.944154,230.7875 34.182801,230 34.827614,230 35.472426,230 36,229.50186 36,228.89301 c 0,-0.60884 0.687417,-0.8432 1.527594,-0.52079 0.855589,0.32832 2.24001,-0.24585 3.147052,-1.3052 0.890702,-1.04027 2.228285,-1.65776 2.972406,-1.37222 C 44.391173,225.98035 45,225.76462 45,225.2154 c 0,-0.54922 1.125,-1.28094 2.5,-1.62604 1.375,-0.34511 2.5,-1.06889 2.5,-1.60841 C 50,221.44143 50.9,221 52,221 c 1.1,0 2,-0.45 2,-1 0,-0.55 0.519079,-1 1.153509,-1 1.695894,0 12.002865,-5.01352 13.609074,-6.61973 C 69.521734,211.62112 70.753571,211 71.5,211 c 0.746429,0 2.080773,-0.72363 2.965211,-1.60807 0.884437,-0.88444 2.716262,-1.67194 4.070722,-1.75 1.35446,-0.0781 2.47533,-0.59193 2.490823,-1.14193 0.03661,-1.29989 8.369893,-5.5 10.912351,-5.5 1.078832,0 2.34404,-0.68354 2.811572,-1.51897 0.467533,-0.83544 1.828652,-1.70743 3.024709,-1.93777 1.196058,-0.23034 3.173462,-1.34934 4.394232,-2.48666 1.32756,-1.23681 2.94514,-1.83756 4.02498,-1.49484 1.21635,0.38606 1.8054,0.0616 1.8054,-0.99437 0,-1.39231 1.17169,-2.02056 2.45695,-1.31739 0.25133,0.1375 1.07392,-0.59375 1.82799,-1.625 0.75407,-1.03125 2.53773,-1.875 3.96369,-1.875 1.789,0 2.42911,-0.42622 2.06503,-1.375 -0.2902,-0.75625 0.083,-1.44354 0.82935,-1.52731 0.74635,-0.0838 1.83823,-0.20378 2.42642,-0.26668 0.58819,-0.0629 2.25986,-0.89436 3.71482,-1.84769 C 126.73921,181.78 128.63459,181 129.4962,181 c 0.86161,0 1.82559,-0.675 2.14217,-1.5 0.31659,-0.825 0.94817,-1.5 1.40352,-1.5 0.45535,0 2.09471,-0.52217 3.64301,-1.16037 1.54831,-0.6382 3.38362,-1.06709 4.07848,-0.95309 0.69486,0.114 1.54043,-0.51469 1.87905,-1.3971 0.33861,-0.88241 1.18824,-1.38466 1.88808,-1.11611 0.7017,0.26927 1.51412,-0.436 1.8113,-1.57241 0.31613,-1.20887 1.09756,-1.8463 1.89043,-1.54204 0.74335,0.28525 2.2062,-0.10631 3.25078,-0.87012 1.04458,-0.76382 2.61389,-1.38876 3.48735,-1.38876 0.87346,0 2.22958,-0.88999 3.0136,-1.97776 1.04767,-1.45356 1.63221,-1.65235 2.20545,-0.75 0.53509,0.84231 0.78476,0.64477 0.79527,-0.62923 0.0102,-1.23693 0.51617,-1.66479 1.51531,-1.28138 0.825,0.31658 1.5,0.23198 1.5,-0.18799 0,-0.41998 2.025,-1.59867 4.5,-2.61932 2.475,-1.02064 4.5,-2.2379 4.5,-2.70502 0,-0.46711 0.68111,-0.8493 1.51357,-0.8493 1.57087,0 5.59135,-1.97599 6.51612,-3.20255 0.74601,-0.98946 10.87986,-0.4769 10.26979,0.51943 -0.2751,0.44929 0.10747,0.72268 0.85017,0.60754 2.61335,-0.40515 7.99175,2.26473 7.44299,3.69476 -0.37585,0.97945 0.31587,1.38082 2.37973,1.38082 1.60028,0 3.15179,0.39188 3.4478,0.87084 0.29602,0.47896 1.78929,1.12105 3.31838,1.42687 1.52909,0.30582 4.12595,1.71339 5.77081,3.12794 1.64485,1.41455 3.21564,2.6059 3.49064,2.64744 3.79007,0.57254 5.52998,1.16641 6.09479,2.08028 0.37488,0.60657 1.18191,0.79365 1.79341,0.41573 0.6579,-0.40661 1.11805,0.0514 1.12711,1.12188 0.013,1.53381 0.16279,1.58082 0.98469,0.30902 0.53316,-0.825 0.97627,-1.0241 0.98469,-0.44245 0.008,0.58166 1.81531,1.85171 4.01531,2.82235 2.2,0.97064 4,2.23472 4,2.80908 0,0.57436 0.92753,0.80173 2.06117,0.50527 1.2615,-0.32988 2.27293,0.0128 2.60699,0.88337 0.3002,0.78231 1.21571,1.42238 2.03446,1.42238 0.81875,0 2.68311,0.83438 4.14301,1.85417 1.4599,1.0198 3.89187,2.15337 5.40437,2.51905 1.5125,0.36569 2.75,1.33131 2.75,2.14583 0,0.81452 0.64571,1.48095 1.4349,1.48095 0.7892,0 2.7017,0.52217 4.25,1.16037 1.54831,0.6382 3.38424,1.06695 4.07985,0.95277 0.69562,-0.11417 1.6179,0.74704 2.04951,1.9138 0.43162,1.16677 1.1126,2.06275 1.51329,1.99108 1.22942,-0.21991 9.67245,4.28356 9.67245,5.15924 0,0.4525 0.54475,0.82274 1.21055,0.82274 2.49791,0 12.78945,4.53563 12.78945,5.6365 0,1.06254 4.54482,2.90049 6.25,2.52754 0.4125,-0.0902 0.75,0.3341 0.75,0.94295 0,0.60884 0.675,0.84797 1.5,0.53138 0.825,-0.31658 1.5,-0.11317 1.5,0.45203 0,0.5652 0.45,0.74952 1,0.4096 0.55,-0.33992 1,-0.23724 1,0.22818 0,0.46542 0.97201,0.91943 2.16002,1.00892 1.18802,0.0895 2.42552,0.58309 2.75,1.0969 0.87249,1.38151 7.92015,5.166 9.6204,5.166 0.80827,0 1.46958,0.675 1.46958,1.5 0,0.825 0.83298,1.5 1.85106,1.5 1.01808,0 3.9669,1.125 6.55292,2.5 2.58601,1.375 5.30489,2.5 6.04195,2.5 0.73705,0 1.61006,0.70352 1.94002,1.56338 0.32996,0.85986 1.0531,1.2833 1.60699,0.94099 0.55388,-0.34232 1.00706,-0.0709 1.00706,0.60328 0,0.67413 0.28417,0.94152 0.63148,0.5942 0.34732,-0.34732 1.58482,-0.10076 2.75,0.5479 1.16519,0.64866 2.45753,1.19533 2.87186,1.21481 1.53423,0.0722 5.79365,5.97059 5.27936,7.31082 -0.29299,0.76351 -0.5327,1.69154 -0.5327,2.0623 0,0.37075 -1.4625,1.29417 -3.25,2.05205 -7.49195,3.17647 -9.75,4.38637 -9.75,5.22421 0,0.48733 -1.09844,0.88606 -2.44098,0.88606 -1.34254,0 -2.71166,0.43796 -3.04248,0.97324 -0.33082,0.53528 -2.26988,1.74934 -4.30902,2.6979 -2.03914,0.94856 -3.93252,1.9731 -4.20752,2.27676 -1.28183,1.4154 -6.78955,3.92922 -7.35968,3.35908 C 316.28814,257.95481 316,258.19167 316,258.83333 316,259.475 315.39385,260 314.65301,260 c -0.74084,0 -2.3847,0.9 -3.65301,2 -1.26831,1.1 -3.11061,2 -4.09399,2 -0.98339,0 -2.06609,0.45 -2.40601,1 -0.33992,0.55 -1.46829,1 -2.5075,1 -1.0392,0 -3.10335,1.125 -4.587,2.5 -1.48365,1.375 -3.53184,2.5 -4.55152,2.5 -1.01969,0 -1.85398,0.47656 -1.85398,1.05902 0,0.58246 -0.45,0.7809 -1,0.44098 -0.55,-0.33992 -1,-0.1556 -1,0.4096 0,0.5652 -0.64584,0.7798 -1.43521,0.47689 -0.80557,-0.30913 -2.40715,0.56709 -3.65068,1.99728 -1.21851,1.40141 -2.60201,2.30912 -3.07445,2.01714 -0.47243,-0.29198 -2.04031,0.39836 -3.48417,1.53411 C 275.91162,280.07076 274.11597,281 273.36514,281 272.61431,281 272,281.39541 272,281.87868 c 0,0.48327 -1.4625,1.43603 -3.25,2.11724 -1.7875,0.68122 -4.66801,1.86081 -6.40113,2.62132 -1.73312,0.76052 -3.64562,1.38276 -4.25,1.38276 -0.60438,0 -1.09887,0.42087 -1.09887,0.93527 0,0.5144 -1.575,1.5048 -3.5,2.20089 -1.925,0.69609 -3.5,1.65177 -3.5,2.12375 0,0.47197 -0.36803,0.63067 -0.81785,0.35267 -0.44981,-0.278 -1.44915,0.37044 -2.22075,1.44098 -0.77161,1.07054 -2.38043,1.94644 -3.57517,1.94644 -1.19474,0 -2.43127,0.675 -2.74786,1.5 -0.31658,0.825 -1.15222,1.49311 -1.85699,1.48469 -0.89599,-0.0107 -0.83024,-0.30687 0.21862,-0.98469 0.825,-0.53316 1.05,-0.96626 0.5,-0.96245 -0.55,0.004 -2.125,0.88691 -3.5,1.96245 -1.375,1.07554 -3.56064,1.96553 -4.85699,1.97776 -1.61815,0.0153 -2.18651,0.4665 -1.81314,1.43948 0.29911,0.77948 -0.12611,1.67433 -0.94495,1.98855 -0.81884,0.31421 -1.2398,0.16842 -0.93548,-0.32399 0.30433,-0.4924 -0.38539,-0.64981 -1.53269,-0.34978 -1.14731,0.30003 -2.32008,1.15548 -2.60617,1.901 -0.28608,0.74552 -0.923,1.10652 -1.41536,0.80222 -0.49237,-0.3043 -0.89522,-0.0767 -0.89522,0.50574 0,0.58246 -0.3375,1.00573 -0.75,0.9406 -2.45284,-0.38729 -4.25,0.32203 -4.25,1.67744 0,0.85746 -0.41372,1.30332 -0.91938,0.99081 -0.50566,-0.31252 -1.53059,0.043 -2.27763,0.79004 -0.74704,0.74704 -3.13338,1.9441 -5.30299,2.66013 -2.16961,0.71603 -4.56591,1.92305 -5.32512,2.68226 -0.75921,0.75921 -3.35914,1.90962 -5.77763,2.55646 -2.41849,0.64685 -4.39725,1.53276 -4.39725,1.96868 0,1.42308 -5.41552,0.75513 -9.1963,-1.13427 z M 77.255998,148.75 c -0.539788,-2.3375 -0.834895,-6.05 -0.655794,-8.25 0.609606,-7.48813 -2.907207,-21.97991 -5.127266,-21.12799 -0.729691,0.28001 -1.864713,-0.13914 -2.52227,-0.93145 C 68.293112,117.64825 66.958356,117 65.984544,117 c -0.973811,0 -2.040533,-0.70352 -2.370492,-1.56338 -0.32996,-0.85986 -1.053105,-1.2833 -1.606989,-0.94099 C 61.453178,114.83795 61,114.56648 61,113.89235 c 0,-0.67413 -0.274398,-0.95129 -0.609774,-0.61591 -0.335376,0.33538 -2.241211,-0.26462 -4.235191,-1.33333 C 54.161056,110.8744 52.057478,110 51.480417,110 50.321161,110 47,104.85112 47,103.05389 c 0,-1.9067 3.798722,-5.345105 5.278062,-4.777429 0.764515,0.293372 2.162256,-0.494908 3.106093,-1.751734 1.082688,-1.441723 3.256546,-2.531469 5.88983,-2.952548 2.295571,-0.367077 4.973021,-1.390729 5.94989,-2.274783 C 68.200744,90.413342 69,90.069622 69,90.533574 c 0,0.463952 0.903221,-0.125945 2.007157,-1.310881 1.245088,-1.336445 2.636238,-1.91303 3.664045,-1.518623 1.112638,0.426959 1.419379,0.25151 0.933826,-0.534131 C 75.207344,86.526472 75.411008,86 76.057614,86 c 0.727232,0 0.950749,-0.858197 0.586012,-2.25 -0.583782,-2.227657 0.406255,-6.30644 3.010108,-12.401129 C 80.39418,69.61575 81,66.144083 81,63.634055 81,58.439276 82.65878,56.915943 87.918362,57.280611 90.267413,57.44348 91.228701,58.079656 91.649708,59.75 91.961617,60.9875 92.599821,62 93.067939,62 94.342686,62 99,67.291463 99,68.739782 99,69.432902 99.468816,70 100.04181,70 c 1.57451,0 4.62424,3.220545 5.37955,5.680849 0.60194,1.960714 1.19487,2.134376 5.87408,1.720448 2.86251,-0.253221 8.35456,-0.676189 12.20456,-0.939929 3.85,-0.263741 7.15,-0.925442 7.33333,-1.470448 0.55182,-1.640418 5.3554,-1.115071 6.70713,0.73353 1.44598,1.977488 0.83423,7.99134 -1.04526,10.27555 -0.67882,0.825 -1.04954,2.005204 -0.82382,2.622675 0.22572,0.617472 -0.50985,1.363328 -1.63461,1.65746 -1.37186,0.358747 -1.84386,1.059006 -1.43391,2.127324 C 132.93898,93.283357 132.71583,94 132.10699,94 131.49814,94 131,94.9 131,96 c 0,1.1 -0.47656,2 -1.05902,2 -0.58246,0 -0.79799,0.422343 -0.47896,0.93854 0.31902,0.516196 -0.11296,1.32636 -0.95996,1.80037 C 125.70774,102.30269 125.61283,111 128.39009,111 c 0.64531,0 1.77937,2.1375 2.52015,4.75 0.74077,2.6125 1.86693,5.2 2.50256,5.75 0.63563,0.55 2.15993,2.72535 3.38734,4.8341 1.93643,3.3269 2.09216,4.35214 1.17721,7.75 C 136.97618,137.80218 136.72279,138 132.96146,138 130.78266,138 129,137.58997 129,137.08882 c 0,-0.50115 -2.8125,-1.17203 -6.25,-1.49084 -3.4375,-0.31882 -7.68931,-0.7106 -9.44847,-0.87063 -1.75915,-0.16002 -3.48491,-0.5774 -3.83501,-0.9275 C 108.41319,132.74652 103,135.08874 103,136.59783 103,137.36902 102.55,138 102,138 c -0.55,0 -1,0.61875 -1,1.375 0,0.75625 -1.295665,1.63413 -2.879256,1.95085 -1.905196,0.38104 -3.07514,1.35366 -3.458274,2.875 -0.318459,1.26453 -1.610294,2.74915 -2.870743,3.29915 -1.26045,0.55 -2.735935,2.0125 -3.278855,3.25 -0.819819,1.86864 -1.774272,2.25 -5.631285,2.25 -4.643097,0 -4.644381,-9.7e-4 -5.625589,-4.25 z M 181.25,124.8033 C 179.4625,124.33003 178,123.50568 178,122.97141 178,122.43713 177.36514,122 176.58921,122 175.0113,122 171,114.42467 171,111.44478 c 0,-1.05807 0.76524,-3.77393 1.70053,-6.03525 4.11059,-9.938462 21.13732,-9.457854 25.3513,0.71559 1.21804,2.94062 0.589,9.17485 -1.13397,11.23839 -5.97201,7.15247 -9.83139,8.98507 -15.66786,7.43979 z M 182.89788,85.699522 179.5,83.399044 179.80425,58.449522 C 179.97342,44.577137 180.5933,31.724072 181.20043,29.5 182.44055,24.957144 188.34368,20 192.51335,20 193.88101,20 195,19.55 195,19 c 0,-0.55 0.675,-1 1.5,-1 0.825,0 1.5,0.377973 1.5,0.83994 0,0.461968 1.83241,1.44469 4.07202,2.183828 4.02117,1.327107 7.92798,5.036691 7.92798,7.527757 0,0.704995 0.53654,1.460654 1.19231,1.679244 1.49646,0.49882 1.61441,10.642925 0.13478,11.591361 -1.00354,0.643267 -1.8836,2.765523 -2.83972,6.847985 C 206.52968,57.029132 204.60864,63 203.87693,63 c -0.48231,0 -0.8879,1.0125 -0.90132,2.25 -0.0239,2.207907 -4.42861,18.646075 -5.1222,19.115917 -6.43689,4.360406 -10.01374,4.679359 -14.95553,1.333605 z"
         id="path3" />
      <path
         style="fill:#13b7a5"
         d="m 173.51679,523.02717 c -0.33068,-0.53505 -2.36198,-1.44694 -4.51401,-2.02642 -2.15203,-0.57948 -4.49553,-1.62498 -5.20778,-2.32333 -0.71225,-0.69835 -4.3325,-2.55396 -8.045,-4.12359 -3.7125,-1.56963 -6.75,-3.13165 -6.75,-3.47116 0,-0.33951 -2.8125,-1.70765 -6.25,-3.04031 -3.4375,-1.33266 -7.01766,-3.19726 -7.95591,-4.14355 -0.93825,-0.94629 -3.07575,-2.0214 -4.75,-2.38913 C 128.36984,501.14196 127,500.48309 127,500.04554 c 0,-0.43754 -1.42239,-1.08002 -3.16088,-1.42772 -1.73848,-0.34769 -3.77995,-1.51603 -4.53661,-2.59631 -0.75665,-1.08028 -3.13901,-2.43894 -5.29412,-3.01925 -2.15511,-0.58031 -4.50114,-1.62649 -5.21339,-2.32484 -0.71225,-0.69835 -4.3325,-2.55396 -8.045,-4.12359 C 97.0375,484.9842 94,483.3852 94,483.00048 c 0,-0.38471 -2.752199,-1.7797 -6.115997,-3.09998 -3.363798,-1.32027 -6.336943,-2.963 -6.606989,-3.6505 -0.270045,-0.6875 -1.256838,-1.25 -2.192873,-1.25 -0.936035,0 -2.57539,-0.66069 -3.643011,-1.4682 -1.067622,-0.8075 -2.643777,-1.4825 -3.502569,-1.5 -0.858791,-0.0175 -2.433791,-0.8193 -3.5,-1.7818 -2.024144,-1.82726 -4.663834,-3.19048 -10.273732,-5.30568 -1.834343,-0.69163 -3.867585,-1.74955 -4.518314,-2.35092 -1.865525,-1.72402 -6.89366,-4.26148 -9.826588,-4.95901 -1.47404,-0.35057 -3.295739,-1.19922 -4.04822,-1.88589 C 37.576441,453.74522 30.246143,450 28.520497,450 c -0.870797,0 -1.833936,-0.65323 -2.14031,-1.45163 -0.306374,-0.7984 -2.020997,-1.93478 -3.810273,-2.5253 -1.789276,-0.59051 -4.221508,-2.18728 -5.404958,-3.54836 C 15.981505,441.11362 14.560251,440 14.006613,440 12.909642,440 12.516177,258.4244 13.606989,255.58179 14.223876,253.97421 20,253.26852 20,254.80073 c 0,0.44041 2.025,1.78456 4.5,2.98701 l 4.5,2.18627 v 85.27709 85.2771 l 4.00686,1.7359 c 2.203773,0.95474 4.453773,1.7359 5,1.7359 0.546227,0 0.99314,0.39937 0.99314,0.88748 0,0.48812 3.016719,2.16961 6.703821,3.73665 3.687101,1.56703 7.802811,3.86767 9.146022,5.11251 1.343212,1.24485 3.244349,2.26336 4.224751,2.26336 0.980402,0 2.457549,0.675 3.282549,1.5 0.825,0.825 1.744842,1.5 2.044093,1.5 0.78795,0 12.005835,5.29791 12.598764,5.95006 0.931527,1.02457 7.484401,3.97723 10.276378,4.63044 1.527007,0.35726 3.23034,1.49779 3.785183,2.53453 0.554844,1.03673 1.525898,1.88497 2.157898,1.88497 1.606898,0 10.004551,4.12439 11.601971,5.69815 0.72678,0.71602 1.95043,1.30185 2.7192,1.30185 1.71283,0 9.83165,4.10582 10.2927,5.20518 0.18334,0.43715 0.85834,0.7967 1.5,0.79901 0.64167,0.002 3.38044,1.1273 6.08615,2.5 2.70571,1.37269 5.51821,2.49581 6.25,2.49581 0.73179,0 1.33052,0.34767 1.33052,0.7726 0,0.83401 4.52688,3.26773 9.75,5.24174 1.7875,0.67557 3.25,1.52464 3.25,1.88684 0,0.3622 2.25189,1.5324 5.0042,2.60045 2.75231,1.06805 6.1973,2.96711 7.65554,4.22014 1.45823,1.25303 3.24249,2.27823 3.96501,2.27823 1.4485,0 9.58077,3.98457 10.37525,5.08357 0.275,0.38041 2.1875,1.39426 4.25,2.25301 l 3.75,1.56137 v 7.44403 c 0,5.8655 -0.33542,7.57276 -1.58179,8.05103 -2.36924,0.90917 -5.22275,0.73227 -5.90142,-0.36584 z m 21.73321,0.31055 c -1.72571,-0.69634 -1.83247,-177.66157 -0.11065,-183.4085 0.97028,-3.23851 1.89774,-4.12762 6.25,-5.99154 2.81086,-1.20379 5.33565,-2.53164 5.61065,-2.95079 0.275,-0.41914 3.38075,-1.9721 6.90167,-3.45101 3.52092,-1.4789 7.12092,-3.50231 8,-4.49645 0.87908,-0.99415 3.96083,-2.62361 6.84833,-3.62103 2.8875,-0.99742 5.25,-2.12674 5.25,-2.5096 0,-0.38287 2.92184,-1.86581 6.49298,-3.29544 3.57113,-1.42962 7.39613,-3.50247 8.5,-4.60634 1.10386,-1.10386 2.69785,-2.00702 3.5422,-2.00702 1.40026,0 6.25916,-2.62867 7.46482,-4.03846 0.275,-0.32156 3.65,-1.8976 7.5,-3.50231 3.85,-1.60471 7.14409,-3.24677 7.3202,-3.64903 C 275.21229,294.91459 285.46226,290 286.93807,290 287.52213,290 288,289.62604 288,289.16898 c 0,-0.83336 1.28006,-1.54925 8.25,-4.61394 2.0625,-0.90688 3.75351,-1.96526 3.7578,-2.35196 0.01,-0.87036 4.90856,-3.20308 6.72675,-3.20308 1.19105,0 5.96268,-2.61247 7.26545,-3.97783 0.75236,-0.78851 9.6032,-5.02217 10.49929,-5.02217 0.42912,0 1.27983,-0.60394 1.89047,-1.34208 0.61063,-0.73815 3.58524,-2.36963 6.61024,-3.62552 3.025,-1.25588 5.725,-2.62636 6,-3.04551 0.275,-0.41914 3.40938,-1.98415 6.96529,-3.47778 3.55591,-1.49364 6.95612,-3.38696 7.55603,-4.20738 0.60791,-0.83137 2.17258,-1.33897 3.53471,-1.1467 L 359.5,253.5 359.76834,346 c 0.19691,67.8769 -0.0357,93.07652 -0.8739,94.66577 -0.62823,1.19117 -2.09899,2.48064 -3.26834,2.86548 -1.16936,0.38484 -2.3511,0.79795 -2.6261,0.91802 -0.275,0.12008 -1.84084,0.77126 -3.47965,1.44709 -1.6388,0.67582 -3.2138,1.59132 -3.5,2.03444 -0.7016,1.08631 -9.07601,5.0692 -10.65849,5.0692 -0.69436,0 -1.62234,0.62047 -2.06217,1.37883 -0.43983,0.75835 -3.27469,2.41305 -6.29969,3.6771 -3.025,1.26405 -6.32193,3.13671 -7.3265,4.16147 -1.00458,1.02476 -3.13198,2.1243 -4.72757,2.44341 -1.59559,0.31912 -3.41627,1.20099 -4.04595,1.9597 -0.62968,0.75872 -1.78359,1.37949 -2.56424,1.37949 -0.78065,0 -2.3854,0.9 -3.56611,2 -1.18072,1.1 -2.77997,2 -3.5539,2 -1.39692,0 -7.25747,2.93579 -8.21573,4.1156 -0.275,0.33858 -3.0875,1.83376 -6.25,3.32262 -3.1625,1.48886 -5.75,3.12434 -5.75,3.6344 C 281,483.58268 280.36653,484 279.59229,484 277.62259,484 268,489.09837 268,490.14197 c 0,0.47192 -0.7875,0.87234 -1.75,0.88983 -0.9625,0.0175 -2.62351,0.6925 -3.69113,1.5 -1.06762,0.80751 -2.67027,1.4682 -3.56144,1.4682 -0.89117,0 -2.49266,0.80261 -3.55887,1.78357 -1.06621,0.98096 -4.41356,2.82166 -7.43856,4.09043 -3.025,1.26878 -5.95,2.83723 -6.5,3.48545 -0.55,0.64823 -3.025,2.0114 -5.5,3.02928 -7.3188,3.00997 -9,3.90292 -9,4.78025 0,0.45706 -0.4377,0.83102 -0.97266,0.83102 -1.80531,0 -12.5206,5.38561 -13.32703,6.69829 -0.43983,0.71594 -1.33983,1.31698 -2,1.33564 -0.66017,0.0187 -3.00031,0.90339 -5.20031,1.96607 -3.88168,1.87498 -7.68756,2.37169 -10.25,1.33772 z M 104.5,439 c -1.1,-0.47269 -3.15265,-0.89106 -4.561439,-0.92971 C 98.52977,438.03163 96.411086,437.1 95.230375,436 94.049663,434.9 92.830163,434 92.520373,434 89.750969,434 77,422.78287 77,420.3466 77,419.60597 76.574555,419 76.054566,419 c -0.519989,0 -1.613944,-1.2375 -2.431012,-2.75 -3.687962,-6.8269 -4.891333,-10.07202 -5.363986,-14.465 -0.463925,-4.31186 -0.289497,-4.81424 2.040039,-5.87565 4.017267,-1.83039 9.577387,-0.34759 10.854013,2.8946 0.58387,1.48283 1.463162,3.47744 1.953981,4.43248 0.49082,0.95504 0.892399,2.42051 0.892399,3.25661 0,0.8361 1.125,2.49836 2.5,3.69391 1.375,1.19555 2.5,2.57471 2.5,3.06481 0,1.2028 2.615668,3.74824 3.851648,3.74824 0.546978,0 2.308014,1.31351 3.913412,2.91891 3.64506,3.64505 10.11998,5.47535 16.16384,4.56911 5.48861,-0.82299 7.92384,-2.03109 10.37468,-5.14683 1.9899,-2.52975 5.74032,-3.03539 10.13132,-1.36594 2.16197,0.82198 2.5651,1.60236 2.5651,4.96552 0,3.04545 -0.66496,4.64959 -2.80834,6.77475 -4.57565,4.53677 -8.52836,7.32361 -11.19166,7.89064 -1.375,0.29274 -3.53367,0.95111 -4.79705,1.46305 -2.80998,1.13863 -9.98309,1.09955 -12.70295,-0.0692 z m 51.34883,-30.68703 c -1.82005,-0.46467 -3.08864,-3.28998 -4.81935,-10.73333 -0.84403,-3.62996 -2.2105,-5.92473 -5.21037,-8.75 C 141.93918,385.17553 139,383.92685 139,385.93261 c 0,0.51294 -0.9,1.21826 -2,1.56739 -1.1,0.34913 -2,1.27945 -2,2.06739 0,0.78793 -0.45,1.43261 -1,1.43261 -0.55,0 -1,0.62686 -1,1.39301 0,1.68624 -2.15557,2.60699 -6.10323,2.60699 -2.1652,0 -3.23973,-0.65862 -4.07872,-2.5 -0.6265,-1.375 -1.51685,-2.5 -1.97857,-2.5 C 120.37777,390 120,388.65 120,387 c 0,-1.65 0.3375,-3.00351 0.75,-3.0078 0.87995,-0.009 3.25,-4.8362 3.25,-6.61922 0,-0.67555 1.8,-2.02244 4,-2.99308 2.2,-0.97064 4,-2.12819 4,-2.57235 0,-0.44415 3.375,-0.80755 7.5,-0.80755 4.125,0 7.5,0.39541 7.5,0.87868 0,0.48327 1.35,1.43787 3,2.12132 1.65,0.68345 3,1.63805 3,2.12132 0,0.48327 0.51933,0.87868 1.15407,0.87868 2.24509,0 8.36931,8.47434 10.0812,13.94979 2.05964,6.58768 2.22729,11.24976 0.51473,14.31378 -0.6875,1.23004 -1.26367,2.3251 -1.28038,2.43348 -0.0771,0.50039 -6.15063,0.99125 -7.62079,0.61592 z M 79,373.25882 c -2.546628,-0.99026 -3.934997,-3.59676 -3.968197,-7.4498 C 75.014312,363.77898 74.55,361.83992 74,361.5 c -0.55,-0.33992 -1,-1.49148 -1,-2.55902 0,-1.06754 -0.3375,-1.94306 -0.75,-1.94561 -0.4125,-0.003 -2.188095,-1.35254 -3.945766,-3 C 64.938137,350.84035 61,350.00354 61,352.4433 c 0,0.79381 -0.7875,2.03131 -1.75,2.75 -0.9625,0.71868 -2.388541,2.5442 -3.16898,4.0567 -1.004732,1.94718 -2.189651,2.75 -4.05887,2.75 -4.14269,0 -6.170733,-2.13861 -6.729553,-7.09644 -0.723778,-6.42134 2.531379,-13.07653 7.226316,-14.77424 C 54.433511,339.43699 56,338.44967 56,337.93527 56,337.42087 58.925,337 62.5,337 c 3.582504,0 6.5,0.44029 6.5,0.98095 0,0.53952 1.198325,1.28171 2.662944,1.6493 C 75.625869,340.62488 83,347.20058 83,349.73978 83,350.4329 83.45,351 84,351 c 0.55,0 1,0.9 1,2 0,1.1 0.401855,2 0.893011,2 1.311294,0 2.162638,2.78055 2.752916,8.99122 0.444409,4.67589 0.202478,5.84897 -1.600134,7.75878 C 84.991274,373.9267 82.10803,374.46739 79,373.25882 Z M 181.25,124.8033 C 179.4625,124.33003 178,123.50568 178,122.97141 178,122.43713 177.36514,122 176.58921,122 175.0113,122 171,114.42467 171,111.44478 c 0,-1.05807 0.76524,-3.77393 1.70053,-6.03525 4.11059,-9.938462 21.13732,-9.457854 25.3513,0.71559 1.21804,2.94062 0.589,9.17485 -1.13397,11.23839 -5.97201,7.15247 -9.83139,8.98507 -15.66786,7.43979 z M 182.89788,85.699522 179.5,83.399044 179.80425,58.449522 C 179.97342,44.577137 180.5933,31.724072 181.20043,29.5 182.44055,24.957144 188.34368,20 192.51335,20 193.88101,20 195,19.55 195,19 c 0,-0.55 0.675,-1 1.5,-1 0.825,0 1.5,0.377973 1.5,0.83994 0,0.461968 1.83241,1.44469 4.07202,2.183828 4.02117,1.327107 7.92798,5.036691 7.92798,7.527757 0,0.704995 0.53654,1.460654 1.19231,1.679244 1.49646,0.49882 1.61441,10.642925 0.13478,11.591361 -1.00354,0.643267 -1.8836,2.765523 -2.83972,6.847985 C 206.52968,57.029132 204.60864,63 203.87693,63 c -0.48231,0 -0.8879,1.0125 -0.90132,2.25 -0.0239,2.207907 -4.42861,18.646075 -5.1222,19.115917 -6.43689,4.360406 -10.01374,4.679359 -14.95553,1.333605 z"
         id="path2" />
    </g>
  </g>
</svg>
